<svg width="38" height="38" viewBox="0 0 38 38" fill="none" xmlns="http://www.w3.org/2000/svg">
<path d="M12.103 24.5195C11.818 24.5195 11.5805 24.282 11.5805 23.997V14.0125C11.5805 13.7275 11.818 13.49 12.103 13.49C12.388 13.49 12.6255 13.7275 12.6255 14.0125V23.997C12.6255 24.282 12.388 24.5195 12.103 24.5195Z" fill="#444444"/>
<path d="M18.0409 17.119C14.3549 17.119 11.5714 15.7795 11.5714 14.0125C11.5714 12.2455 14.3549 10.906 18.0409 10.906C21.7269 10.906 24.5104 12.2455 24.5104 14.0125C24.5104 15.7795 21.7269 17.119 18.0409 17.119ZM18.0409 11.951C14.9344 11.951 12.6164 13.0435 12.6164 14.0125C12.6164 14.9815 14.9344 16.074 18.0409 16.074C21.1474 16.074 23.4654 14.9815 23.4654 14.0125C23.4654 13.0435 21.1474 11.951 18.0409 11.951Z" fill="#444444"/>
<path d="M18.0409 14.7535C16.8059 14.7535 16.2739 14.535 16.2739 14.0125C16.2739 13.49 16.8059 13.2715 18.0409 13.2715C19.2759 13.2715 19.8079 13.49 19.8079 14.0125C19.8079 14.535 19.2759 14.7535 18.0409 14.7535Z" fill="#444444"/>
<path d="M18.0407 27.1035C14.3547 27.1035 11.5712 25.764 11.5712 23.997C11.5712 23.712 11.8087 23.4745 12.0937 23.4745C12.3787 23.4745 12.6162 23.712 12.6162 23.997C12.6162 24.966 14.9342 26.0585 18.0407 26.0585C18.3257 26.0585 18.5632 26.296 18.5632 26.581C18.5632 26.866 18.3257 27.1035 18.0407 27.1035Z" fill="#444444"/>
<path d="M23.9878 17.119C23.7028 17.119 23.4653 16.8815 23.4653 16.5965V14.0125C23.4653 13.7275 23.7028 13.49 23.9878 13.49C24.2728 13.49 24.5103 13.7275 24.5103 14.0125V16.5965C24.5103 16.8815 24.2728 17.119 23.9878 17.119Z" fill="#444444"/>
<path d="M24.8045 27.1035H18.0405C17.7555 27.1035 17.518 26.866 17.518 26.581C17.518 26.296 17.7555 26.0585 18.0405 26.0585H24.8045C25.3555 26.0585 25.802 25.612 25.802 25.061V18.1165C25.802 17.5655 25.3555 17.119 24.8045 17.119H18.0405C17.7555 17.119 17.518 16.8815 17.518 16.5965C17.518 16.3115 17.7555 16.074 18.0405 16.074H24.8045C25.935 16.074 26.847 16.986 26.847 18.1165V25.061C26.847 26.1915 25.935 27.1035 24.8045 27.1035Z" fill="#444444"/>
<path d="M18.791 19.703C18.506 19.703 18.2686 19.4655 18.2686 19.1805V18.658C18.2686 18.373 18.506 18.1355 18.791 18.1355C19.076 18.1355 19.3135 18.373 19.3135 18.658V19.1805C19.3135 19.4655 19.076 19.703 18.791 19.703Z" fill="#444444"/>
<path d="M18.791 22.6195C18.506 22.6195 18.2685 22.382 18.2685 22.097V21.128C18.2685 20.843 18.506 20.6055 18.791 20.6055C19.076 20.6055 19.3135 20.843 19.3135 21.128V22.097C19.3135 22.382 19.076 22.6195 18.791 22.6195Z" fill="#444444"/>
<path d="M18.791 25.08C18.506 25.08 18.2685 24.8425 18.2685 24.5575V24.035C18.2685 23.75 18.506 23.5125 18.791 23.5125C19.076 23.5125 19.3135 23.75 19.3135 24.035V24.5575C19.3135 24.8425 19.076 25.08 18.791 25.08Z" fill="#444444"/>
</svg>
