<svg width="38" height="38" viewBox="0 0 38 38" fill="none" xmlns="http://www.w3.org/2000/svg">
<path d="M27.3125 19C27.3125 23.5909 23.5909 27.3125 19 27.3125C14.4091 27.3125 10.6875 23.5909 10.6875 19C10.6875 14.4091 14.4091 10.6875 19 10.6875C23.5909 10.6875 27.3125 14.4091 27.3125 19Z" fill="#C2F2F9"/>
<path fill-rule="evenodd" clip-rule="evenodd" d="M19 26.4219C23.099 26.4219 26.4219 23.099 26.4219 19C26.4219 14.901 23.099 11.5781 19 11.5781C14.901 11.5781 11.5781 14.901 11.5781 19C11.5781 23.099 14.901 26.4219 19 26.4219ZM19 27.3125C23.5909 27.3125 27.3125 23.5909 27.3125 19C27.3125 14.4091 23.5909 10.6875 19 10.6875C14.4091 10.6875 10.6875 14.4091 10.6875 19C10.6875 23.5909 14.4091 27.3125 19 27.3125Z" fill="#444444"/>
<path fill-rule="evenodd" clip-rule="evenodd" d="M16.9219 27.0506C20.5071 26.1278 23.1562 22.8733 23.1562 19C23.1562 15.1267 20.5071 11.8722 16.9219 10.9494C17.5861 10.7784 18.2824 10.6875 19 10.6875C23.5909 10.6875 27.3125 14.4091 27.3125 19C27.3125 23.5909 23.5909 27.3125 19 27.3125C18.2824 27.3125 17.5861 27.2216 16.9219 27.0506Z" fill="#6BD9E7"/>
<path d="M13.9928 19.2636C13.9928 19.1227 13.9589 18.9904 13.9001 18.8724H18.7028C19.1829 18.8724 19.5715 18.4819 19.5715 18.001C19.5715 17.52 19.1822 17.1295 18.7028 17.1295H16.9543C16.5911 17.1295 16.2972 16.8346 16.2972 16.4703C16.2972 16.106 16.5918 15.8112 16.9543 15.8112H17.7093C18.2782 15.8112 18.7387 15.3486 18.7387 14.7785C18.7387 14.2084 18.2776 13.7458 17.7093 13.7458H13.5911C13.2182 13.7458 12.8923 13.9457 12.7113 14.2438H12.4886L11.0719 17.5102H11.1353C11.0399 17.6498 10.9844 17.8188 10.9844 18.001C10.9844 18.25 11.0889 18.4734 11.2554 18.632C11.0889 18.7905 10.9844 19.0146 10.9844 19.263C10.9844 19.7446 11.3737 20.1344 11.8531 20.1344H13.1235C13.6036 20.1344 13.9922 19.7439 13.9922 19.263L13.9928 19.2636Z" fill="#4FD66E"/>
<path d="M15.7822 21.3217H14.5112C14.0314 21.3217 13.6425 21.7118 13.6425 22.1931V22.1938C13.6425 22.6751 14.0314 23.0652 14.5112 23.0652H15.7822C16.262 23.0652 16.6509 22.6751 16.6509 22.1938V22.1931C16.6509 21.7118 16.262 21.3217 15.7822 21.3217Z" fill="#4FD66E"/>
<path d="M25.4947 21.3217H19.1708C18.6907 21.3217 18.3021 21.7122 18.3021 22.1931C18.3021 22.6747 18.6913 23.0646 19.1708 23.0646H22.0708C22.0662 23.1006 22.063 23.1373 22.063 23.1747C22.063 23.6563 22.4523 24.0461 22.9317 24.0461H24.9617C25.4418 24.0461 25.8304 23.6556 25.8304 23.1747C25.8304 23.1157 25.8245 23.0587 25.8134 23.003C26.1354 22.8752 26.3634 22.5607 26.3634 22.1931C26.3634 21.7115 25.9741 21.3217 25.4947 21.3217Z" fill="#4FD66E"/>
<path d="M22.0179 17.3222H25.5522C26.0322 17.3222 26.4209 16.9316 26.4209 16.4507C26.4209 16.0156 26.1028 15.6559 25.6874 15.5904L24.7703 14.0669L24.4398 13.4732C24.3934 13.3461 24.3464 13.7937 24.3464 13.6371H24.6972C24.6972 13.1555 23.7455 12.7656 23.2661 12.7656H22.7475C22.2674 12.7656 21.8788 13.1561 21.8788 13.6371C21.8788 14.1187 22.2681 14.5086 22.7475 14.5086H23.2674V14.5099C23.5509 14.5223 23.7775 14.7562 23.7775 15.0432C23.7775 15.3302 23.5509 15.5648 23.2674 15.5766V15.5779H22.0172C21.5372 15.5779 21.1485 15.9684 21.1485 16.4494C21.1485 16.9303 21.5378 17.3208 22.0172 17.3208L22.0179 17.3222Z" fill="#4FD66E"/>
<mask id="mask0_951_1409" style="mask-type:alpha" maskUnits="userSpaceOnUse" x="16" y="10" width="12" height="18">
<path fill-rule="evenodd" clip-rule="evenodd" d="M16.9219 27.0506C20.5071 26.1278 23.1562 22.8733 23.1562 19C23.1562 15.1267 20.5071 11.8722 16.9219 10.9494C17.5861 10.7784 18.2824 10.6875 19 10.6875C23.5909 10.6875 27.3125 14.4091 27.3125 19C27.3125 23.5909 23.5909 27.3125 19 27.3125C18.2824 27.3125 17.5861 27.2216 16.9219 27.0506Z" fill="#6BD9E7"/>
</mask>
<g mask="url(#mask0_951_1409)">
<path d="M13.9928 19.2636C13.9928 19.1227 13.9589 18.9904 13.9001 18.8724H18.7028C19.1829 18.8724 19.5715 18.4819 19.5715 18.001C19.5715 17.52 19.1822 17.1295 18.7028 17.1295H16.9543C16.5911 17.1295 16.2972 16.8346 16.2972 16.4703C16.2972 16.106 16.5918 15.8112 16.9543 15.8112H17.7093C18.2782 15.8112 18.7387 15.3486 18.7387 14.7785C18.7387 14.2084 18.2776 13.7458 17.7093 13.7458H13.5911C13.2182 13.7458 12.8923 13.9457 12.7113 14.2438H12.4886L11.0719 17.5102H11.1353C11.0399 17.6498 10.9844 17.8188 10.9844 18.001C10.9844 18.25 11.0889 18.4734 11.2554 18.632C11.0889 18.7905 10.9844 19.0146 10.9844 19.263C10.9844 19.7446 11.3737 20.1344 11.8531 20.1344H13.1235C13.6036 20.1344 13.9922 19.7439 13.9922 19.263L13.9928 19.2636Z" fill="#4FD66E"/>
<path d="M25.4947 21.3217H19.1708C18.6907 21.3217 18.3021 21.7122 18.3021 22.1931C18.3021 22.6747 18.6913 23.0646 19.1708 23.0646H22.0708C22.0662 23.1006 22.063 23.1373 22.063 23.1747C22.063 23.6563 22.4523 24.0461 22.9317 24.0461H24.9617C25.4418 24.0461 25.8304 23.6556 25.8304 23.1747C25.8304 23.1157 25.8245 23.0587 25.8134 23.003C26.1354 22.8752 26.3634 22.5607 26.3634 22.1931C26.3634 21.7115 25.9741 21.3217 25.4947 21.3217Z" fill="#45C262"/>
<path d="M22.0179 17.3222H25.5522C26.0322 17.3222 26.4209 16.9316 26.4209 16.4507C26.4209 16.0156 26.1028 15.6559 25.6874 15.5904L24.7703 14.0669L24.4398 13.4732C24.3934 13.3461 24.3464 13.7937 24.3464 13.6371H24.6972C24.6972 13.1555 23.7455 12.7656 23.2661 12.7656H22.7475C22.2674 12.7656 21.8788 13.1561 21.8788 13.6371C21.8788 14.1187 22.2681 14.5086 22.7475 14.5086H23.2674V14.5099C23.5509 14.5223 23.7775 14.7562 23.7775 15.0432C23.7775 15.3302 23.5509 15.5648 23.2674 15.5766V15.5779H22.0172C21.5372 15.5779 21.1485 15.9684 21.1485 16.4494C21.1485 16.9303 21.5378 17.3208 22.0172 17.3208L22.0179 17.3222Z" fill="#45C262"/>
</g>
<path fill-rule="evenodd" clip-rule="evenodd" d="M19 26.4219C23.099 26.4219 26.4219 23.099 26.4219 19C26.4219 14.901 23.099 11.5781 19 11.5781C14.901 11.5781 11.5781 14.901 11.5781 19C11.5781 23.099 14.901 26.4219 19 26.4219ZM19 27.3125C23.5909 27.3125 27.3125 23.5909 27.3125 19C27.3125 14.4091 23.5909 10.6875 19 10.6875C14.4091 10.6875 10.6875 14.4091 10.6875 19C10.6875 23.5909 14.4091 27.3125 19 27.3125Z" fill="#444444"/>
<path fill-rule="evenodd" clip-rule="evenodd" d="M18.9998 10.7825C14.4614 10.7825 10.7823 14.4616 10.7823 19C10.7823 23.5384 14.4614 27.2175 18.9998 27.2175C23.5382 27.2175 27.2173 23.5384 27.2173 19C27.2173 14.4616 23.5382 10.7825 18.9998 10.7825ZM10.5923 19C10.5923 14.3567 14.3565 10.5925 18.9998 10.5925C23.6432 10.5925 27.4073 14.3567 27.4073 19C27.4073 23.6433 23.6432 27.4075 18.9998 27.4075C14.3565 27.4075 10.5923 23.6433 10.5923 19ZM18.9998 11.6731C14.9533 11.6731 11.673 14.9535 11.673 19C11.673 23.0465 14.9533 26.3269 18.9998 26.3269C23.0464 26.3269 26.3267 23.0465 26.3267 19C26.3267 14.9535 23.0464 11.6731 18.9998 11.6731ZM11.483 19C11.483 14.8485 14.8484 11.4831 18.9998 11.4831C23.1513 11.4831 26.5167 14.8485 26.5167 19C26.5167 23.1515 23.1513 26.5169 18.9998 26.5169C14.8484 26.5169 11.483 23.1515 11.483 19Z" fill="#444444"/>
</svg>
