<svg width="38" height="38" viewBox="0 0 38 38" fill="none" xmlns="http://www.w3.org/2000/svg">
<path d="M19.0004 27.132C16.3879 27.132 14.7254 25.6595 14.1269 25.023C11.8469 22.591 12.3409 19.5605 13.1579 17.442C14.5924 13.7275 17.5374 11.5995 18.4114 11.039C18.7724 10.811 19.2284 10.811 19.5894 11.039C20.4539 11.5995 23.4084 13.7275 24.8429 17.442C25.6599 19.5605 26.1539 22.591 23.8739 25.023C23.1329 25.8115 21.5274 27.132 19.0004 27.132ZM19.0004 11.913C19.0004 11.913 18.9909 11.913 18.9814 11.913C18.1834 12.4355 15.4569 14.3925 14.1364 17.8125C13.1009 20.482 13.3574 22.667 14.8869 24.301C15.3904 24.833 16.7869 26.0775 19.0004 26.0775C21.2139 26.0775 22.4869 24.966 23.1139 24.301C24.6434 22.667 24.8999 20.482 23.8644 17.8125C22.5439 14.3925 19.8269 12.426 19.0194 11.913H19.0004Z" fill="#444444"/>
<path d="M18.3358 24.149C18.3358 24.149 18.2978 24.149 18.2788 24.149C15.7898 23.8735 15.1343 21.888 15.1248 20.8715C15.1248 20.5865 15.3623 20.349 15.6473 20.349C15.9323 20.349 16.1698 20.577 16.1698 20.8715C16.1698 21.0805 16.2648 22.876 18.3928 23.1135C18.6778 23.142 18.8868 23.3985 18.8583 23.693C18.8298 23.959 18.6018 24.1585 18.3358 24.1585V24.149Z" fill="#444444"/>
</svg>
