<svg width="38" height="38" viewBox="0 0 38 38" fill="none" xmlns="http://www.w3.org/2000/svg">
<path d="M13.7087 20.425C11.9512 20.425 10.7637 19.0475 10.7637 16.9955C10.7637 15.105 12.2932 13.566 14.1742 13.566C14.5352 13.566 14.8962 13.623 15.2382 13.737C15.5137 13.832 15.6562 14.1265 15.5707 14.3925C15.4757 14.668 15.1812 14.8105 14.9152 14.725C14.6777 14.649 14.4307 14.611 14.1742 14.611C12.8727 14.611 11.8087 15.675 11.8087 16.9955C11.8087 18.145 12.3027 19.38 13.7087 19.38C13.9937 19.38 14.2312 19.6175 14.2312 19.9025C14.2312 20.1875 13.9937 20.425 13.7087 20.425Z" fill="#444444"/>
<path d="M24.2821 20.425C23.9971 20.425 23.7596 20.1875 23.7596 19.9025C23.7596 19.6175 23.9971 19.38 24.2821 19.38C25.6786 19.38 26.1821 18.145 26.1821 16.9955C26.1821 15.6845 25.1181 14.611 23.8166 14.611C23.5696 14.611 23.3226 14.649 23.0851 14.725C22.8096 14.8105 22.5151 14.668 22.4296 14.3925C22.3441 14.117 22.4866 13.8225 22.7621 13.737C23.1041 13.623 23.4556 13.566 23.8166 13.566C25.6976 13.566 27.2271 15.105 27.2271 16.9955C27.2271 19.0475 26.0491 20.425 24.2821 20.425Z" fill="#444444"/>
<path d="M22.5628 15.2855C22.2778 15.2855 22.0403 15.048 22.0403 14.763C22.0403 13.1955 20.6723 11.9225 19.0003 11.9225C17.3283 11.9225 15.9603 13.1955 15.9603 14.763C15.9603 15.048 15.7228 15.2855 15.4378 15.2855C15.1528 15.2855 14.9153 15.048 14.9153 14.763C14.9153 12.616 16.7488 10.8775 19.0003 10.8775C21.2518 10.8775 23.0853 12.6255 23.0853 14.763C23.0853 15.048 22.8478 15.2855 22.5628 15.2855Z" fill="#444444"/>
<path d="M24.0827 24.548H13.9177C13.6327 24.548 13.3952 24.3105 13.3952 24.0255C13.3952 23.7405 13.6327 23.503 13.9177 23.503H24.0827C24.3677 23.503 24.6052 23.7405 24.6052 24.0255C24.6052 24.3105 24.3677 24.548 24.0827 24.548Z" fill="#444444"/>
<path d="M17.2144 22.6955C16.9294 22.6955 16.6919 22.458 16.6919 22.173V19.8075C16.6919 19.5225 16.9294 19.285 17.2144 19.285C17.4994 19.285 17.7369 19.5225 17.7369 19.8075V22.173C17.7369 22.458 17.4994 22.6955 17.2144 22.6955Z" fill="#444444"/>
<path d="M20.7862 22.6955C20.5012 22.6955 20.2637 22.458 20.2637 22.173V19.8075C20.2637 19.5225 20.5012 19.285 20.7862 19.285C21.0712 19.285 21.3087 19.5225 21.3087 19.8075V22.173C21.3087 22.458 21.0712 22.6955 20.7862 22.6955Z" fill="#444444"/>
<path d="M22.135 27.132H15.8555C14.383 27.132 13.186 25.935 13.186 24.4625V19.893C13.186 19.608 13.4235 19.3705 13.7085 19.3705C13.9935 19.3705 14.231 19.608 14.231 19.893V24.4625C14.231 25.3555 14.9625 26.087 15.8555 26.087H22.135C23.028 26.087 23.7595 25.3555 23.7595 24.4625V19.893C23.7595 19.608 23.997 19.3705 24.282 19.3705C24.567 19.3705 24.8045 19.608 24.8045 19.893V24.4625C24.8045 25.935 23.6075 27.132 22.135 27.132Z" fill="#444444"/>
</svg>
