<svg width="38" height="38" viewBox="0 0 38 38" fill="none" xmlns="http://www.w3.org/2000/svg">
<path d="M15.8176 27.4265C13.2526 27.4265 11.1626 25.3365 11.1626 22.7715C11.1626 20.2065 13.2526 18.1165 15.8176 18.1165C18.3826 18.1165 20.4726 20.2065 20.4726 22.7715C20.4726 25.3365 18.3826 27.4265 15.8176 27.4265ZM15.8176 19.1615C13.8226 19.1615 12.2076 20.786 12.2076 22.7715C12.2076 24.757 13.8321 26.3815 15.8176 26.3815C17.8031 26.3815 19.4276 24.757 19.4276 22.7715C19.4276 20.786 17.8031 19.1615 15.8176 19.1615Z" fill="#444444"/>
<path d="M15.8177 25.2035C14.4782 25.2035 13.3762 24.111 13.3762 22.762C13.3762 22.477 13.6137 22.2395 13.8987 22.2395C14.1837 22.2395 14.4212 22.477 14.4212 22.762C14.4212 23.5315 15.0482 24.1585 15.8177 24.1585C16.1027 24.1585 16.3402 24.396 16.3402 24.681C16.3402 24.966 16.1027 25.2035 15.8177 25.2035Z" fill="#444444"/>
<path d="M23.9779 21.6695C22.1824 21.6695 20.7289 20.2065 20.7289 18.4205C20.7289 16.6345 22.1919 15.1715 23.9779 15.1715C25.7639 15.1715 27.227 16.6345 27.227 18.4205C27.227 20.2065 25.7639 21.6695 23.9779 21.6695ZM23.9779 16.207C22.7619 16.207 21.7739 17.195 21.7739 18.411C21.7739 19.627 22.7619 20.615 23.9779 20.615C25.1939 20.615 26.1819 19.627 26.1819 18.411C26.1819 17.195 25.1939 16.207 23.9779 16.207Z" fill="#444444"/>
<path d="M24.9755 18.943C24.6905 18.943 24.453 18.7055 24.453 18.4205C24.453 18.1545 24.244 17.9455 23.978 17.9455C23.693 17.9455 23.4555 17.708 23.4555 17.423C23.4555 17.138 23.693 16.9005 23.978 16.9005C24.814 16.9005 25.4981 17.5845 25.4981 18.4205C25.4981 18.7055 25.2605 18.943 24.9755 18.943Z" fill="#444444"/>
<path d="M16.7295 16.549C15.2 16.549 13.9555 15.3045 13.9555 13.775C13.9555 12.2455 15.2 11.001 16.7295 11.001C18.259 11.001 19.5036 12.2455 19.5036 13.775C19.5036 15.3045 18.259 16.549 16.7295 16.549ZM16.7295 12.046C15.7795 12.046 15.0005 12.825 15.0005 13.775C15.0005 14.725 15.7795 15.504 16.7295 15.504C17.6795 15.504 18.4585 14.725 18.4585 13.775C18.4585 12.825 17.6795 12.046 16.7295 12.046Z" fill="#444444"/>
</svg>
