<svg width="38" height="38" viewBox="0 0 38 38" fill="none" xmlns="http://www.w3.org/2000/svg">
<path d="M11.5782 17.5044C11.5782 16.5206 12.3757 15.7231 13.3594 15.7231H15.2948C16.2786 15.7231 17.0761 16.5206 17.0761 17.5044V23.838C17.0761 24.8218 16.2786 25.6193 15.2948 25.6193H13.3594C12.3757 25.6193 11.5782 24.8218 11.5782 23.838V17.5044Z" fill="#95E6A8"/>
<path fill-rule="evenodd" clip-rule="evenodd" d="M11.1329 17.5044C11.1329 16.2747 12.1297 15.2778 13.3594 15.2778H15.2948C16.5245 15.2778 17.5214 16.2747 17.5214 17.5044V23.838C17.5214 25.0677 16.5245 26.0646 15.2948 26.0646H13.3594C12.1297 26.0646 11.1329 25.0677 11.1329 23.838V17.5044ZM13.3594 16.1684C12.6216 16.1684 12.0235 16.7665 12.0235 17.5044V23.838C12.0235 24.5758 12.6216 25.174 13.3594 25.174H15.2948C16.0326 25.174 16.6307 24.5758 16.6307 23.838V17.5044C16.6307 16.7665 16.0326 16.1684 15.2948 16.1684H13.3594Z" fill="#444444"/>
<path fill-rule="evenodd" clip-rule="evenodd" d="M11.0377 17.5044C11.0377 16.2222 12.0771 15.1828 13.3593 15.1828H15.2947C16.5768 15.1828 17.6162 16.2222 17.6162 17.5044V23.838C17.6162 25.1202 16.5768 26.1596 15.2947 26.1596H13.3593C12.0771 26.1596 11.0377 25.1202 11.0377 23.838V17.5044ZM13.3593 15.3728C12.1821 15.3728 11.2277 16.3271 11.2277 17.5044V23.838C11.2277 25.0153 12.1821 25.9696 13.3593 25.9696H15.2947C16.4719 25.9696 17.4262 25.0153 17.4262 23.838V17.5044C17.4262 16.3271 16.4719 15.3728 15.2947 15.3728H13.3593ZM13.3593 16.2634C12.6739 16.2634 12.1183 16.819 12.1183 17.5044V23.838C12.1183 24.5234 12.6739 25.079 13.3593 25.079H15.2947C15.98 25.079 16.5356 24.5234 16.5356 23.838V17.5044C16.5356 16.819 15.98 16.2634 15.2947 16.2634H13.3593ZM11.9283 17.5044C11.9283 16.7141 12.569 16.0734 13.3593 16.0734H15.2947C16.0849 16.0734 16.7256 16.7141 16.7256 17.5044V23.838C16.7256 24.6283 16.0849 25.269 15.2947 25.269H13.3593C12.569 25.269 11.9283 24.6283 11.9283 23.838V17.5044Z" fill="#444444"/>
<path fill-rule="evenodd" clip-rule="evenodd" d="M19.9581 11.3246C19.3363 11.3246 18.7776 11.7043 18.5485 12.2823L17.0761 15.9978V17.3722H17.0809C17.0777 17.4158 17.0761 17.4599 17.0761 17.5043V23.8379C17.0761 24.8216 17.8736 25.6191 18.8573 25.6191H22.86C24.8275 25.6191 26.4225 24.0241 26.4225 22.0566V19.2855C26.4225 17.318 24.8275 15.723 22.86 15.723H21.4744V12.8409C21.4744 12.0035 20.7955 11.3246 19.9581 11.3246Z" fill="white"/>
<path fill-rule="evenodd" clip-rule="evenodd" d="M19.9581 11.77C19.5189 11.77 19.1243 12.0381 18.9625 12.4464L17.5214 16.0829V17.3069C17.5262 17.3391 17.5274 17.3719 17.525 17.4048C17.5226 17.4376 17.5214 17.4708 17.5214 17.5043V23.838C17.5214 24.5758 18.1195 25.1739 18.8573 25.1739H22.86C24.5815 25.1739 25.9771 23.7783 25.9771 22.0567V19.2856C25.9771 17.564 24.5815 16.1684 22.86 16.1684H21.4744C21.2284 16.1684 21.0291 15.969 21.0291 15.7231V12.8409C21.0291 12.2494 20.5496 11.77 19.9581 11.77ZM16.6326 17.4131C16.6314 17.3997 16.6308 17.386 16.6308 17.3723V15.9978C16.6308 15.9417 16.6414 15.886 16.6621 15.8338L18.1345 12.1182C18.4308 11.3704 19.1537 10.8793 19.9581 10.8793C21.0415 10.8793 21.9197 11.7576 21.9197 12.8409V15.2778H22.86C25.0734 15.2778 26.8678 17.0721 26.8678 19.2856V22.0567C26.8678 24.2702 25.0734 26.0646 22.86 26.0646H18.8573C17.6276 26.0646 16.6308 25.0677 16.6308 23.838V17.5043C16.6308 17.4738 16.6314 17.4434 16.6326 17.4131Z" fill="#444444"/>
<path fill-rule="evenodd" clip-rule="evenodd" d="M18.0465 12.0832C18.3572 11.2992 19.1151 10.7843 19.9584 10.7843C21.0943 10.7843 22.015 11.7051 22.015 12.8409V15.1828H22.8603C25.1262 15.1828 26.9631 17.0197 26.9631 19.2856V22.0567C26.9631 24.3227 25.1262 26.1596 22.8603 26.1596H18.8577C17.5755 26.1596 16.5361 25.1202 16.5361 23.838V17.5043C16.5361 17.4745 16.5367 17.4448 16.5378 17.4152C16.5367 17.4011 16.5361 17.3867 16.5361 17.3723V15.9978C16.5361 15.9297 16.549 15.8621 16.5741 15.7988L18.0465 12.0832ZM19.9584 10.9743C19.193 10.9743 18.5051 11.4416 18.2231 12.1532L16.7507 15.8688C16.7345 15.9099 16.7261 15.9536 16.7261 15.9978V17.3723C16.7261 17.3832 16.7266 17.3939 16.7275 17.4045L16.7287 17.417L16.7279 17.4169C16.7267 17.4459 16.7261 17.4751 16.7261 17.5043V23.838C16.7261 25.0152 17.6804 25.9696 18.8577 25.9696H22.8603C25.0213 25.9696 26.7731 24.2177 26.7731 22.0567V19.2856C26.7731 17.1246 25.0213 15.3728 22.8603 15.3728H21.92C21.8675 15.3728 21.825 15.3302 21.825 15.2778V12.8409C21.825 11.81 20.9893 10.9743 19.9584 10.9743ZM19.9584 11.865C19.5582 11.865 19.1986 12.1093 19.0511 12.4814L17.6167 16.101V17.3003C17.6217 17.3369 17.6228 17.3743 17.6201 17.4118C17.6179 17.4422 17.6167 17.4731 17.6167 17.5043V23.838C17.6167 24.5233 18.1723 25.0789 18.8577 25.0789H22.8603C24.5294 25.0789 25.8825 23.7259 25.8825 22.0567V19.2856C25.8825 17.6165 24.5294 16.2634 22.8603 16.2634H21.4747C21.1763 16.2634 20.9344 16.0215 20.9344 15.7231V12.8409C20.9344 12.3019 20.4974 11.865 19.9584 11.865ZM18.8745 12.4114C19.0506 11.9669 19.4803 11.675 19.9584 11.675C20.6024 11.675 21.1244 12.197 21.1244 12.8409V15.7231C21.1244 15.9166 21.2812 16.0734 21.4747 16.0734H22.8603C24.6343 16.0734 26.0725 17.5115 26.0725 19.2856V22.0567C26.0725 23.8308 24.6343 25.2689 22.8603 25.2689H18.8577C18.0674 25.2689 17.4267 24.6283 17.4267 23.838V17.5043C17.4267 17.4685 17.428 17.433 17.4306 17.3979C17.4325 17.372 17.4315 17.3462 17.4277 17.3209C17.4271 17.3163 17.4267 17.3116 17.4267 17.3069V16.0829C17.4267 16.0709 17.429 16.059 17.4334 16.0479L18.8745 12.4114Z" fill="#444444"/>
</svg>
