<svg width="38" height="38" viewBox="0 0 38 38" fill="none" xmlns="http://www.w3.org/2000/svg">
<path d="M19.9025 26.8755H15.1715C13.6325 26.8755 12.388 25.631 12.388 24.092V19.5415C12.388 19.0855 12.1885 18.677 11.8655 18.43C11.343 18.0405 10.716 17.233 10.716 15.618C10.716 14.3355 11.438 13.1575 12.7395 12.2835C13.8225 11.5615 15.2095 11.1245 16.435 11.1245H18.6485C19.874 11.1245 21.261 11.5615 22.344 12.2835C23.6455 13.1575 24.3675 14.3355 24.3675 15.618C24.3675 17.2235 23.7405 18.031 23.218 18.43C22.8855 18.677 22.6955 19.095 22.6955 19.5415V24.092C22.6955 25.631 21.451 26.8755 19.912 26.8755H19.9025ZM16.4255 12.179C15.409 12.179 14.212 12.559 13.3095 13.1575C12.73 13.547 11.7515 14.383 11.7515 15.618C11.7515 16.549 12.008 17.233 12.483 17.5845C13.072 18.031 13.4235 18.753 13.4235 19.532V24.0825C13.4235 25.042 14.2025 25.821 15.162 25.821H19.893C20.8525 25.821 21.6315 25.042 21.6315 24.0825V19.532C21.6315 18.753 21.983 18.0215 22.572 17.5845C23.0565 17.2235 23.3035 16.549 23.3035 15.618C23.3035 14.3735 22.325 13.5375 21.7455 13.1575C20.843 12.5495 19.646 12.179 18.6295 12.179H16.416H16.4255Z" fill="#444444"/>
<path d="M22.8574 26.8755H19.0004V25.8305H22.8574C23.7979 25.8305 24.5675 25.061 24.5675 24.1205V19.5415C24.5675 18.7625 24.9189 18.031 25.5079 17.594C25.9924 17.233 26.2394 16.549 26.2394 15.6275C26.2394 14.383 25.261 13.547 24.6815 13.167C23.779 12.559 22.582 12.1885 21.5655 12.1885H16.4259V11.1435H21.5655C22.791 11.1435 24.1779 11.5805 25.2609 12.3025C26.5624 13.1765 27.2844 14.3545 27.2844 15.637C27.2844 17.2425 26.6574 18.05 26.1349 18.449C25.8025 18.696 25.6124 19.114 25.6124 19.5605V24.1395C25.6124 25.6595 24.3774 26.8945 22.8574 26.8945V26.8755Z" fill="#444444"/>
<path d="M17.1759 22.3725C17.0429 22.3725 16.9099 22.325 16.8054 22.2205C16.6059 22.021 16.6059 21.6885 16.8054 21.4795L19.3324 18.9525C19.5319 18.753 19.8644 18.753 20.0734 18.9525C20.2824 19.152 20.2729 19.4845 20.0734 19.6935L17.5464 22.2205C17.4419 22.325 17.3089 22.3725 17.1759 22.3725Z" fill="#444444"/>
<path d="M15.3613 20.558C15.2283 20.558 15.0953 20.5105 14.9908 20.406C14.7913 20.2065 14.7913 19.874 14.9908 19.665L17.5178 17.138C17.7173 16.9385 18.0498 16.9385 18.2588 17.138C18.4678 17.3375 18.4583 17.67 18.2588 17.879L15.7318 20.406C15.6273 20.5105 15.4943 20.558 15.3613 20.558Z" fill="#444444"/>
</svg>
