<svg width="38" height="38" viewBox="0 0 38 38" fill="none" xmlns="http://www.w3.org/2000/svg">
<path fill-rule="evenodd" clip-rule="evenodd" d="M27.2313 13.6128C27.4064 13.6128 27.5482 13.4709 27.5482 13.2959C27.5482 13.1209 27.4064 12.979 27.2313 12.979C27.0563 12.979 26.9145 13.1209 26.9145 13.2959C26.9145 13.4709 27.0563 13.6128 27.2313 13.6128ZM27.2313 14.5635C27.9314 14.5635 28.4989 13.996 28.4989 13.2959C28.4989 12.5959 27.9314 12.0284 27.2313 12.0284C26.5313 12.0284 25.9638 12.5959 25.9638 13.2959C25.9638 13.996 26.5313 14.5635 27.2313 14.5635Z" fill="#444444"/>
<path fill-rule="evenodd" clip-rule="evenodd" d="M27.2312 12.1233C26.5836 12.1233 26.0586 12.6483 26.0586 13.2959C26.0586 13.9435 26.5836 14.4685 27.2312 14.4685C27.8788 14.4685 28.4038 13.9435 28.4038 13.2959C28.4038 12.6483 27.8788 12.1233 27.2312 12.1233ZM25.8686 13.2959C25.8686 12.5434 26.4787 11.9333 27.2312 11.9333C27.9837 11.9333 28.5938 12.5434 28.5938 13.2959C28.5938 14.0484 27.9837 14.6585 27.2312 14.6585C26.4787 14.6585 25.8686 14.0484 25.8686 13.2959ZM27.2312 13.074C27.1087 13.074 27.0093 13.1734 27.0093 13.2959C27.0093 13.4185 27.1087 13.5178 27.2312 13.5178C27.3537 13.5178 27.4531 13.4185 27.4531 13.2959C27.4531 13.1734 27.3537 13.074 27.2312 13.074ZM26.8193 13.2959C26.8193 13.0684 27.0037 12.884 27.2312 12.884C27.4587 12.884 27.6431 13.0684 27.6431 13.2959C27.6431 13.5234 27.4587 13.7078 27.2312 13.7078C27.0037 13.7078 26.8193 13.5234 26.8193 13.2959Z" fill="#444444"/>
<path fill-rule="evenodd" clip-rule="evenodd" d="M10.753 23.1195C11.278 23.1195 11.7036 22.6938 11.7036 22.1688C11.7036 21.6438 11.278 21.2181 10.753 21.2181C10.2279 21.2181 9.80228 21.6438 9.80228 22.1688C9.80228 22.6938 10.2279 23.1195 10.753 23.1195ZM10.753 24.0701C11.803 24.0701 12.6543 23.2189 12.6543 22.1688C12.6543 21.1187 11.803 20.2675 10.753 20.2675C9.70287 20.2675 8.85162 21.1187 8.85162 22.1688C8.85162 23.2189 9.70287 24.0701 10.753 24.0701Z" fill="#444444"/>
<path fill-rule="evenodd" clip-rule="evenodd" d="M10.7528 20.3625C9.75519 20.3625 8.94646 21.1712 8.94646 22.1688C8.94646 23.1664 9.75519 23.9751 10.7528 23.9751C11.7504 23.9751 12.5591 23.1664 12.5591 22.1688C12.5591 21.1712 11.7504 20.3625 10.7528 20.3625ZM8.75646 22.1688C8.75646 21.0662 9.65025 20.1725 10.7528 20.1725C11.8553 20.1725 12.7491 21.0662 12.7491 22.1688C12.7491 23.2713 11.8553 24.1651 10.7528 24.1651C9.65025 24.1651 8.75646 23.2713 8.75646 22.1688ZM10.7528 21.3131C10.2802 21.3131 9.89713 21.6962 9.89713 22.1688C9.89713 22.6414 10.2802 23.0245 10.7528 23.0245C11.2254 23.0245 11.6085 22.6414 11.6085 22.1688C11.6085 21.6962 11.2254 21.3131 10.7528 21.3131ZM9.70713 22.1688C9.70713 21.5913 10.1753 21.1231 10.7528 21.1231C11.3303 21.1231 11.7985 21.5913 11.7985 22.1688C11.7985 22.7463 11.3303 23.2145 10.7528 23.2145C10.1753 23.2145 9.70713 22.7463 9.70713 22.1688Z" fill="#444444"/>
<path fill-rule="evenodd" clip-rule="evenodd" d="M27.179 21.5352C27.4415 21.5352 27.6543 21.748 27.6543 22.0105L27.6543 23.1724C27.6543 23.435 27.4415 23.6478 27.179 23.6478C26.9164 23.6478 26.7036 23.435 26.7036 23.1724L26.7036 22.0105C26.7036 21.748 26.9164 21.5352 27.179 21.5352Z" fill="#444444"/>
<path fill-rule="evenodd" clip-rule="evenodd" d="M27.1786 21.4402C27.4936 21.4402 27.749 21.6955 27.749 22.0105L27.749 23.1724C27.749 23.4874 27.4936 23.7428 27.1786 23.7428C26.8637 23.7428 26.6083 23.4874 26.6083 23.1724L26.6083 22.0105C26.6083 21.6955 26.8637 21.4402 27.1786 21.4402ZM27.559 22.0105C27.559 21.8005 27.3887 21.6302 27.1786 21.6302C26.9686 21.6302 26.7983 21.8005 26.7983 22.0105L26.7983 23.1724C26.7983 23.3825 26.9686 23.5528 27.1786 23.5528C27.3887 23.5528 27.559 23.3825 27.559 23.1724L27.559 22.0105Z" fill="#444444"/>
<path fill-rule="evenodd" clip-rule="evenodd" d="M27.179 25.7604C27.4415 25.7604 27.6543 25.9733 27.6543 26.2358L27.6543 27.3977C27.6543 27.6602 27.4415 27.873 27.179 27.873C26.9164 27.873 26.7036 27.6602 26.7036 27.3977L26.7036 26.2358C26.7036 25.9733 26.9164 25.7604 27.179 25.7604Z" fill="#444444"/>
<path fill-rule="evenodd" clip-rule="evenodd" d="M27.1786 25.6654C27.4936 25.6654 27.749 25.9208 27.749 26.2358L27.749 27.3977C27.749 27.7127 27.4936 27.968 27.1786 27.968C26.8637 27.968 26.6083 27.7127 26.6083 27.3977L26.6083 26.2358C26.6083 25.9208 26.8637 25.6654 27.1786 25.6654ZM27.559 26.2358C27.559 26.0257 27.3887 25.8554 27.1786 25.8554C26.9686 25.8554 26.7983 26.0257 26.7983 26.2358L26.7983 27.3977C26.7983 27.6077 26.9686 27.778 27.1786 27.778C27.3887 27.778 27.559 27.6077 27.559 27.3977L27.559 26.2358Z" fill="#444444"/>
<path fill-rule="evenodd" clip-rule="evenodd" d="M24.0625 24.7569C24.0625 24.4944 24.2753 24.2816 24.5378 24.2816L25.6997 24.2816C25.9623 24.2816 26.1751 24.4944 26.1751 24.7569C26.1751 25.0194 25.9623 25.2322 25.6997 25.2322L24.5378 25.2322C24.2753 25.2322 24.0625 25.0194 24.0625 24.7569Z" fill="#444444"/>
<path fill-rule="evenodd" clip-rule="evenodd" d="M23.9672 24.7569C23.9672 24.4419 24.2225 24.1866 24.5375 24.1866L25.6994 24.1866C26.0144 24.1866 26.2698 24.4419 26.2698 24.7569C26.2698 25.0719 26.0144 25.3272 25.6994 25.3272L24.5375 25.3272C24.2225 25.3272 23.9672 25.0719 23.9672 24.7569ZM24.5375 24.3766C24.3275 24.3766 24.1572 24.5468 24.1572 24.7569C24.1572 24.9669 24.3275 25.1372 24.5375 25.1372L25.6994 25.1372C25.9095 25.1372 26.0798 24.9669 26.0798 24.7569C26.0798 24.5468 25.9095 24.3766 25.6994 24.3766L24.5375 24.3766Z" fill="#444444"/>
<path fill-rule="evenodd" clip-rule="evenodd" d="M28.2872 24.7568C28.2872 24.4942 28.5 24.2814 28.7626 24.2814L29.9245 24.2814C30.187 24.2814 30.3998 24.4942 30.3998 24.7568C30.3998 25.0193 30.187 25.2321 29.9245 25.2321L28.7626 25.2321C28.5 25.2321 28.2872 25.0193 28.2872 24.7568Z" fill="#444444"/>
<path fill-rule="evenodd" clip-rule="evenodd" d="M28.193 24.7568C28.193 24.4418 28.4484 24.1864 28.7634 24.1864L29.9253 24.1864C30.2403 24.1864 30.4956 24.4418 30.4956 24.7568C30.4956 25.0718 30.2403 25.3271 29.9253 25.3271L28.7634 25.3271C28.4484 25.3271 28.193 25.0718 28.193 24.7568ZM28.7634 24.3764C28.5533 24.3764 28.383 24.5467 28.383 24.7568C28.383 24.9668 28.5533 25.1371 28.7634 25.1371L29.9253 25.1371C30.1353 25.1371 30.3056 24.9668 30.3056 24.7568C30.3056 24.5467 30.1353 24.3764 29.9253 24.3764L28.7634 24.3764Z" fill="#444444"/>
<path d="M16.4265 12.1145L13.6886 18.3813C13.4452 18.9492 13.861 19.588 14.4796 19.588H18.1707L15.9804 25.1146C15.5443 26.2199 16.1629 27.2339 17.3493 27.2339C17.978 27.2339 18.556 26.879 18.8501 26.3213L24.0927 17.5194C24.5186 16.7791 24.0015 16.3228 23.5857 16.3228H20.8579L23.1598 12.1247C23.4741 11.5466 23.0584 10.847 22.4094 10.847H18.3836C17.542 10.847 16.7713 11.3438 16.4367 12.1247L16.4265 12.1145Z" fill="#95E6A8"/>
<path d="M17.3394 27.7916C16.6093 27.7916 15.9705 27.4772 15.6054 26.9398C15.2201 26.3719 15.1694 25.6418 15.4533 24.9117L17.3394 20.1457H14.4697C13.9931 20.1457 13.5469 19.9023 13.2832 19.5068C13.0196 19.1012 12.979 18.6043 13.1717 18.1683L15.9096 11.9015C16.3355 10.928 17.2989 10.2892 18.3636 10.2892H22.3894C22.8964 10.2892 23.3527 10.5528 23.6062 10.9888C23.8597 11.4249 23.8699 11.9522 23.6265 12.3882L21.7708 15.765H23.5555C23.9814 15.765 24.3972 16.0084 24.6203 16.3734C24.7622 16.6168 24.9346 17.1238 24.5493 17.7931L19.3067 26.5848C18.9213 27.3251 18.1608 27.7916 17.3191 27.7916H17.3394ZM16.9338 12.3375L14.1959 18.6043C14.135 18.7361 14.1959 18.8477 14.2162 18.8883C14.2466 18.9288 14.3176 19.0201 14.4697 19.0201H18.1608C18.3433 19.0201 18.5157 19.1113 18.6171 19.2634C18.7185 19.4156 18.7388 19.6082 18.678 19.7806L16.4876 25.3072C16.3355 25.6824 16.3558 26.0373 16.5282 26.2908C16.6904 26.524 16.9744 26.6558 17.3394 26.6558C17.7653 26.6558 18.1507 26.4226 18.3433 26.0474C18.3433 26.0373 18.3535 26.0271 18.3636 26.017L23.6062 17.2151C23.6772 17.0934 23.7076 16.9717 23.6772 16.9109C23.6569 16.8703 23.6062 16.85 23.5859 16.85H20.8582C20.6655 16.85 20.483 16.7486 20.3816 16.5762C20.2801 16.4038 20.2801 16.201 20.3816 16.0286L22.6834 11.8305C22.7544 11.6987 22.7037 11.577 22.6834 11.5263C22.653 11.4857 22.582 11.3742 22.4198 11.3742H18.394C17.7755 11.3742 17.2076 11.7392 16.9541 12.3172L16.9338 12.3375Z" fill="#444444"/>
</svg>
