<svg width="38" height="38" viewBox="0 0 38 38" fill="none" xmlns="http://www.w3.org/2000/svg">
<path d="M20.7864 24.3865C20.4444 24.3865 20.0929 24.3485 19.7604 24.301C19.4754 24.263 19.2094 24.2345 18.9909 24.2345C18.7724 24.2345 18.5064 24.263 18.2214 24.301C17.3854 24.4055 16.4449 24.51 15.8274 23.9495C15.4664 23.6265 15.2954 23.1325 15.3144 22.4865C15.3714 20.197 17.8509 18.1355 18.9909 18.1355C20.1309 18.1355 22.6104 20.197 22.6674 22.4865C22.6864 23.1325 22.5059 23.6265 22.1544 23.9495C21.7839 24.2915 21.2994 24.3865 20.7864 24.3865ZM18.9909 23.1895C19.2664 23.1895 19.5704 23.2275 19.8839 23.2655C20.4634 23.332 21.1854 23.4175 21.4514 23.18C21.5749 23.066 21.6319 22.8475 21.6224 22.515C21.5844 20.7955 19.5609 19.1805 18.9909 19.1805C18.4209 19.1805 16.3974 20.7955 16.3594 22.515C16.3594 22.8475 16.4069 23.066 16.5304 23.18C16.7964 23.427 17.5184 23.332 18.0979 23.2655C18.4114 23.2275 18.7154 23.1895 18.9909 23.1895Z" fill="#444444"/>
<path d="M17.0528 17.1855C16.6633 17.1855 16.2833 17.043 15.9698 16.777C15.6183 16.473 15.3808 16.0455 15.3143 15.561C15.2478 15.0765 15.3523 14.6015 15.6183 14.212C15.8938 13.8035 16.2928 13.547 16.7583 13.4805C17.6893 13.3475 18.5728 14.079 18.7058 15.0955C18.8388 16.112 18.2023 17.043 17.2618 17.176C17.1858 17.1855 17.1098 17.195 17.0433 17.195L17.0528 17.1855ZM16.9863 14.5065C16.9863 14.5065 16.9388 14.5065 16.9103 14.5065C16.7488 14.5255 16.5968 14.63 16.4923 14.782C16.3783 14.953 16.3308 15.181 16.3593 15.409C16.3878 15.637 16.4923 15.8365 16.6538 15.979C16.7963 16.1025 16.9673 16.1595 17.1288 16.131C17.4898 16.0835 17.7368 15.675 17.6798 15.2285C17.6228 14.8105 17.3188 14.5065 16.9768 14.5065H16.9863Z" fill="#444444"/>
<path d="M14.1837 20.083C13.8987 20.083 13.6137 20.007 13.3477 19.8455C12.9582 19.6175 12.6637 19.2375 12.5212 18.791C12.3787 18.3445 12.3977 17.8695 12.5877 17.461C12.7777 17.024 13.1292 16.7105 13.5567 16.5775C14.4307 16.302 15.3807 16.8435 15.6847 17.7935C15.8272 18.24 15.8082 18.715 15.6182 19.1235C15.4282 19.5605 15.0767 19.874 14.6492 20.007C14.4972 20.0545 14.3357 20.083 14.1742 20.083H14.1837ZM14.0317 17.5465C13.9842 17.5465 13.9272 17.5465 13.8797 17.5655C13.7372 17.613 13.6137 17.727 13.5472 17.879C13.4712 18.0595 13.4617 18.2685 13.5282 18.468C13.5947 18.6675 13.7182 18.8385 13.8892 18.9335C14.0412 19.019 14.2027 19.0475 14.3452 19C14.4877 18.9525 14.6112 18.8385 14.6777 18.6865C14.7537 18.506 14.7632 18.297 14.6967 18.0975C14.5922 17.765 14.3167 17.537 14.0317 17.537V17.5465Z" fill="#444444"/>
<path d="M20.9385 17.1855C20.8625 17.1855 20.796 17.1855 20.72 17.1665C19.7795 17.0335 19.1335 16.1025 19.276 15.086C19.4185 14.0695 20.2925 13.3475 21.2235 13.471C21.689 13.5375 22.0975 13.794 22.3635 14.2025C22.62 14.592 22.734 15.067 22.6675 15.5515C22.5345 16.492 21.784 17.176 20.929 17.176L20.9385 17.1855ZM21.0145 14.5065C20.682 14.5065 20.3685 14.8105 20.3115 15.2285C20.2545 15.675 20.5015 16.0835 20.8625 16.131C21.2235 16.1785 21.575 15.8555 21.6415 15.409C21.67 15.181 21.6225 14.9625 21.5085 14.782C21.404 14.63 21.252 14.5255 21.0905 14.5065C21.062 14.5065 21.043 14.5065 21.0145 14.5065Z" fill="#444444"/>
<path d="M23.7979 20.0735C23.6459 20.0735 23.4844 20.0545 23.3324 19.9975C22.8954 19.855 22.5534 19.5415 22.3634 19.114C22.1829 18.7055 22.1545 18.2305 22.297 17.784C22.601 16.834 23.551 16.2925 24.425 16.568C24.862 16.7105 25.2039 17.024 25.3939 17.4515C25.5744 17.86 25.6029 18.335 25.4604 18.7815C25.2134 19.5605 24.5199 20.064 23.7979 20.064V20.0735ZM23.95 17.537C23.6745 17.537 23.399 17.7555 23.285 18.0975C23.2185 18.297 23.228 18.5155 23.304 18.6865C23.3705 18.848 23.494 18.9525 23.6365 19C23.9595 19.1045 24.3204 18.867 24.4534 18.468C24.5199 18.2685 24.5105 18.05 24.4345 17.879C24.368 17.7175 24.2444 17.613 24.1019 17.5655C24.0544 17.5465 23.9975 17.5465 23.95 17.5465V17.537Z" fill="#444444"/>
<path d="M20.9002 26.8185H17.1002C15.0387 26.8185 13.5093 25.726 12.9013 23.8165C12.4928 22.5245 11.8277 21.4605 11.2862 20.615C10.8682 19.95 10.5358 19.418 10.4313 18.943C10.2508 18.1355 10.4122 16.7675 11.0772 15.732C11.5807 14.9435 12.3217 14.421 13.2052 14.231C13.4617 14.174 13.6612 13.9935 13.7182 13.756C13.8987 13.0055 14.3643 11.989 15.5138 11.476C16.7108 10.9345 17.9268 11.229 18.6678 11.685C18.8673 11.8085 19.1333 11.8085 19.3233 11.685C20.0643 11.229 21.2803 10.944 22.4773 11.476C23.6268 11.9985 24.0827 13.0055 24.2727 13.756C24.3297 13.9935 24.5293 14.174 24.7858 14.231C27.2273 14.763 27.8068 17.6035 27.5598 18.9335C27.4648 19.437 27.1037 20.0165 26.6477 20.7575C26.1252 21.603 25.4603 22.6575 25.0898 23.826C24.4818 25.7355 22.9522 26.828 20.8907 26.828L20.9002 26.8185ZM16.8818 12.217C16.5778 12.217 16.2642 12.274 15.9507 12.4165C15.1812 12.7585 14.8678 13.4615 14.7443 13.9935C14.5923 14.6205 14.0887 15.105 13.4427 15.238C12.8252 15.371 12.3313 15.7225 11.9798 16.283C11.4383 17.119 11.3623 18.2115 11.4668 18.7055C11.5333 19 11.8373 19.4845 12.1888 20.045C12.7493 20.9475 13.4523 22.0685 13.9083 23.484C14.3738 24.947 15.5138 25.7545 17.1098 25.7545H20.9098C22.5058 25.7545 23.6457 24.947 24.1112 23.484C24.5197 22.192 25.2132 21.0805 25.7737 20.178C26.1442 19.589 26.4958 19.019 26.5528 18.715C26.7143 17.8505 26.3722 15.618 24.5767 15.2285C23.9307 15.086 23.4272 14.611 23.2752 13.984C23.1422 13.452 22.8287 12.749 22.0687 12.407C21.2422 12.0365 20.4062 12.236 19.8932 12.5495C19.3612 12.8725 18.6773 12.8725 18.1453 12.5495C17.8318 12.3595 17.3852 12.2075 16.9007 12.2075L16.8818 12.217Z" fill="#444444"/>
</svg>
