<svg width="38" height="38" viewBox="0 0 38 38" fill="none" xmlns="http://www.w3.org/2000/svg">
<path d="M22.781 24.5195C22.496 24.5195 22.2585 24.282 22.2585 23.997C22.2585 23.712 22.496 23.4745 22.781 23.4745C23.37 23.4745 23.8545 22.99 23.8545 22.401C23.8545 22.116 24.092 21.8785 24.377 21.8785C24.662 21.8785 24.8995 22.116 24.8995 22.401C24.8995 23.5695 23.9495 24.5195 22.781 24.5195Z" fill="#444444"/>
<path d="M23.9116 26.752H14.0886C12.3881 26.752 11.0106 25.3745 11.0106 23.674V20.2065C11.0106 18.8385 12.1221 17.7365 13.4806 17.7365H24.5291C25.8971 17.7365 26.9991 18.848 26.9991 20.2065V23.674C26.9991 25.3745 25.6216 26.752 23.9211 26.752H23.9116ZM13.4806 18.772C12.6921 18.772 12.0556 19.4085 12.0556 20.197V23.6645C12.0556 24.7855 12.9676 25.6975 14.0886 25.6975H23.9211C25.0421 25.6975 25.9541 24.7855 25.9541 23.6645V20.197C25.9541 19.4085 25.3081 18.772 24.5291 18.772H13.4806Z" fill="#444444"/>
<path d="M25.3083 18.772H12.6923C12.4073 18.772 12.1698 18.5345 12.1698 18.2495V17.252C12.1698 16.1595 13.0628 15.2665 14.1553 15.2665H23.8548C24.9473 15.2665 25.8403 16.1595 25.8403 17.252V18.2495C25.8403 18.5345 25.6028 18.772 25.3178 18.772H25.3083ZM13.2053 17.727H24.7858V17.252C24.7858 16.739 24.3678 16.3115 23.8453 16.3115H14.1458C13.6328 16.3115 13.2053 16.7295 13.2053 17.252V17.727Z" fill="#444444"/>
<path d="M24.1019 16.321H13.8989C13.6139 16.321 13.3764 16.0835 13.3764 15.7985C13.3764 14.155 14.7159 12.825 16.3499 12.825H17.4044C18.0409 12.825 18.6584 12.673 19.1714 12.388C19.5609 12.1695 19.8934 11.913 20.1499 11.609C20.4349 11.267 20.8814 11.172 21.3279 11.343C21.8789 11.5615 22.4394 12.217 22.4679 12.939C23.7409 13.3 24.6244 14.4685 24.6244 15.808C24.6244 16.093 24.3869 16.3305 24.1019 16.3305V16.321ZM14.4879 15.276H23.5129C23.3324 14.63 22.8194 14.1075 22.1449 13.927C21.7079 13.8415 21.4039 13.4425 21.4229 12.996C21.4229 12.844 21.3374 12.6445 21.1854 12.483C21.0714 12.369 20.9764 12.312 20.9194 12.3025C20.5869 12.692 20.1689 13.0245 19.6749 13.3C19.0099 13.6705 18.2214 13.87 17.4044 13.87H16.3499C15.4664 13.87 14.7159 14.4685 14.4879 15.276Z" fill="#444444"/>
</svg>
