<svg width="38" height="38" viewBox="0 0 38 38" fill="none" xmlns="http://www.w3.org/2000/svg">
<path d="M19.19 17.746C19.0855 17.746 18.9809 17.746 18.8764 17.727C17.4799 17.5655 16.6154 16.606 16.6154 15.238C16.6154 14.364 17.1475 13.338 18.3255 13.1575C18.962 13.0625 19.3989 13.281 19.6554 13.4805C19.9879 13.7465 20.2159 14.1455 20.2444 14.535C20.3014 15.257 19.8264 15.8745 19.0949 16.0265C18.8099 16.0835 18.5345 15.903 18.4775 15.6275C18.4205 15.3425 18.6009 15.067 18.8764 15.01C19.1804 14.9435 19.2089 14.7345 19.1994 14.6205C19.1994 14.5635 19.1424 14.421 18.9999 14.307C18.8669 14.2025 18.6865 14.1645 18.4775 14.193C17.822 14.2975 17.6509 14.896 17.6509 15.238C17.6509 15.827 17.879 16.5585 18.981 16.6915C19.437 16.7485 19.8834 16.606 20.2349 16.2925C20.6244 15.941 20.8525 15.428 20.8525 14.858C20.8525 13.6135 20.2729 12.5685 20.2729 12.559C20.1304 12.312 20.2254 11.989 20.4724 11.8465C20.7194 11.704 21.0424 11.7895 21.1849 12.046C21.2134 12.0935 21.8974 13.3285 21.8974 14.858C21.8974 15.713 21.5459 16.5205 20.938 17.0715C20.444 17.5085 19.836 17.746 19.19 17.746Z" fill="#444444"/>
<path d="M15.5327 20.2255C15.2477 20.2255 15.0102 19.988 15.0102 19.703V19.152C15.0102 18.867 15.2477 18.6295 15.5327 18.6295C15.8177 18.6295 16.0552 18.867 16.0552 19.152V19.703C16.0552 19.988 15.8177 20.2255 15.5327 20.2255Z" fill="#444444"/>
<path d="M22.4583 20.2255C22.1733 20.2255 21.9358 19.988 21.9358 19.703V19.152C21.9358 18.867 22.1733 18.6295 22.4583 18.6295C22.7433 18.6295 22.9808 18.867 22.9808 19.152V19.703C22.9808 19.988 22.7433 20.2255 22.4583 20.2255Z" fill="#444444"/>
<path d="M19.0001 20.995C18.5251 20.995 18.0501 20.8145 17.6511 20.444L17.6321 20.425C17.4231 20.235 17.4041 19.9025 17.5941 19.684C17.7841 19.475 18.1166 19.456 18.3351 19.646L18.3541 19.665C18.7721 20.045 19.2471 20.045 19.6651 19.6555C19.8741 19.456 20.2066 19.475 20.4061 19.684C20.6056 19.893 20.5866 20.2255 20.3776 20.425C19.9691 20.805 19.4846 20.995 19.0001 20.995Z" fill="#444444"/>
<path d="M19.0001 26.695C15.6656 26.695 12.7206 24.5385 11.6851 21.4035C10.5736 21.3085 9.69014 20.368 9.69014 19.228C9.69014 18.088 10.4976 17.233 11.5426 17.0715C12.4071 13.7085 15.4756 11.305 18.9906 11.305C22.5056 11.305 25.5741 13.7085 26.4386 17.0715C27.4836 17.233 28.2911 18.1355 28.2911 19.228C28.2911 20.3205 27.4171 21.299 26.2961 21.4035C25.2701 24.5385 22.3156 26.695 18.9811 26.695H19.0001ZM12.0746 20.349C12.3121 20.349 12.5211 20.501 12.5781 20.7385C13.3571 23.636 15.9981 25.65 19.0001 25.65C22.0021 25.65 24.6431 23.6265 25.4221 20.7385C25.4886 20.4915 25.7261 20.33 25.9921 20.3585C26.0396 20.3585 26.0871 20.3585 26.1346 20.3585C26.7616 20.3585 27.2651 19.8455 27.2651 19.228C27.2651 18.6105 26.7521 18.0975 26.1346 18.0975H26.0681C25.8021 18.1165 25.5836 17.936 25.5266 17.6795C24.9091 14.592 22.1636 12.35 19.0096 12.35C15.8556 12.35 13.1101 14.592 12.4926 17.6795C12.4451 17.936 12.2171 18.1165 11.9511 18.0975H11.8846C11.2576 18.0975 10.7541 18.601 10.7541 19.228C10.7541 19.855 11.2671 20.3585 11.8846 20.3585C11.9321 20.3585 11.9796 20.3585 12.0176 20.3585C12.0366 20.3585 12.0556 20.3585 12.0841 20.3585L12.0746 20.349Z" fill="#444444"/>
</svg>
