<svg width="38" height="38" viewBox="0 0 38 38" fill="none" xmlns="http://www.w3.org/2000/svg">
<path d="M18.4511 11.2442C18.6942 10.8186 19.3078 10.8186 19.5509 11.2442L21.7041 15.0136C21.7946 15.1721 21.9491 15.2838 22.1279 15.3201L26.3959 16.1879C26.8791 16.2861 27.0697 16.8745 26.7357 17.2374L23.8011 20.4259C23.6767 20.5611 23.6171 20.7436 23.6378 20.9262L24.1255 25.2232C24.1809 25.7113 23.6835 26.0739 23.2357 25.8719L19.2614 24.0787C19.0958 24.004 18.9061 24.004 18.7405 24.0787L14.7662 25.8719C14.3184 26.0739 13.8211 25.7113 13.8765 25.2232L14.3641 20.9262C14.3848 20.7436 14.3253 20.5611 14.2008 20.4259L11.2662 17.2374C10.9323 16.8745 11.1228 16.2861 11.606 16.1879L15.8741 15.3201C16.0529 15.2838 16.2073 15.1721 16.2978 15.0136L18.4511 11.2442Z" fill="#FCF8D8"/>
<path fill-rule="evenodd" clip-rule="evenodd" d="M18.0383 11.0085C18.4637 10.2638 19.5375 10.2638 19.963 11.0085L22.1162 14.778C22.1388 14.8176 22.1774 14.8455 22.2221 14.8546L26.4902 15.7224C27.3358 15.8943 27.6692 16.924 27.0849 17.559L24.1502 20.7475C24.1191 20.7813 24.1042 20.8269 24.1094 20.8726L24.5971 25.1696C24.694 26.0238 23.8237 26.6583 23.04 26.3048L19.0657 24.5116C19.0243 24.4929 18.9769 24.4929 18.9355 24.5116L14.9612 26.3048C14.1775 26.6583 13.3072 26.0238 13.4041 25.1696L13.8918 20.8726C13.897 20.8269 13.8821 20.7813 13.851 20.7475L10.9164 17.559C10.332 16.924 10.6654 15.8943 11.511 15.7224L15.7791 14.8546C15.8238 14.8455 15.8624 14.8176 15.885 14.778L18.0383 11.0085ZM19.1381 11.4797C19.0773 11.3734 18.9239 11.3734 18.8631 11.4797L16.7099 15.2492C16.5515 15.5264 16.2812 15.7219 15.9683 15.7855L11.7003 16.6533C11.5795 16.6778 11.5319 16.8249 11.6153 16.9157L14.55 20.1042C14.7677 20.3407 14.872 20.6602 14.8357 20.9797L14.3481 25.2767C14.3342 25.3987 14.4585 25.4894 14.5705 25.4389L18.5448 23.6457C18.8346 23.5149 19.1666 23.5149 19.4564 23.6457L23.4307 25.4389C23.5427 25.4894 23.667 25.3987 23.6532 25.2767L23.1655 20.9797C23.1292 20.6602 23.2335 20.3407 23.4512 20.1042L26.3859 16.9157C26.4694 16.8249 26.4217 16.6778 26.3009 16.6533L22.0329 15.7855C21.72 15.7219 21.4497 15.5264 21.2913 15.2492L19.1381 11.4797Z" fill="#444444"/>
<path fill-rule="evenodd" clip-rule="evenodd" d="M17.9557 10.9614C18.4176 10.1528 19.5835 10.1528 20.0454 10.9614L22.1986 14.7308C22.2077 14.7467 22.2231 14.7579 22.241 14.7615L26.509 15.6292C27.4272 15.8159 27.7892 16.9339 27.1547 17.6233L24.22 20.8118C24.2076 20.8253 24.2016 20.8436 24.2037 20.8618L24.6914 25.1588C24.7966 26.0863 23.8517 26.7752 23.0009 26.3914L19.0266 24.5982C19.01 24.5907 18.991 24.5907 18.9745 24.5982L15.0002 26.3914C14.1494 26.7752 13.2044 26.0863 13.3097 25.1588L13.7973 20.8618C13.7994 20.8436 13.7935 20.8253 13.781 20.8118L10.8464 17.6233C10.2119 16.9339 10.5739 15.8159 11.492 15.6292L15.7601 14.7615C15.7779 14.7579 15.7934 14.7467 15.8024 14.7308L17.9557 10.9614ZM19.8804 11.0557C19.4914 10.3747 18.5096 10.3747 18.1207 11.0557L15.9674 14.8251C15.9312 14.8885 15.8694 14.9331 15.7979 14.9477L11.5299 15.8154C10.7567 15.9726 10.4519 16.9141 10.9862 17.4946L13.9208 20.6831C13.9706 20.7372 13.9944 20.8102 13.9861 20.8833L13.4985 25.1803C13.4098 25.9613 14.2056 26.5414 14.922 26.2182L18.8963 24.425C18.9626 24.3951 19.0385 24.3951 19.1047 24.425L23.079 26.2182C23.7955 26.5414 24.5912 25.9613 24.5026 25.1803L24.0149 20.8833C24.0066 20.8102 24.0305 20.7372 24.0802 20.6831L27.0149 17.4946C27.5492 16.9141 27.2443 15.9726 26.4712 15.8154L22.2031 14.9477C22.1316 14.9331 22.0698 14.8885 22.0336 14.8251L22.1161 14.778L22.0336 14.8251L19.8804 11.0557ZM19.0555 11.5269C19.0312 11.4843 18.9699 11.4843 18.9455 11.5269L16.7923 15.2963C16.6203 15.5973 16.3269 15.8095 15.9872 15.8786L11.7191 16.7464C11.6708 16.7562 11.6518 16.815 11.6852 16.8513L14.6198 20.0398C14.8562 20.2967 14.9694 20.6435 14.93 20.9904L14.4424 25.2874C14.4368 25.3362 14.4866 25.3725 14.5313 25.3523L18.5057 23.5591C18.8203 23.4171 19.1808 23.4171 19.4954 23.5591L23.4697 25.3523C23.5145 25.3725 23.5642 25.3362 23.5587 25.2874L23.071 20.9904C23.0317 20.6435 23.1449 20.2967 23.3813 20.0398L26.3159 16.8513C26.3493 16.815 26.3302 16.7562 26.2819 16.7464L22.0139 15.8786C21.6741 15.8095 21.3807 15.5973 21.2088 15.2963L19.0555 11.5269ZM18.7806 11.4326C18.8778 11.2624 19.1233 11.2624 19.2205 11.4326L21.3737 15.202C21.5185 15.4555 21.7656 15.6343 22.0517 15.6924L26.3198 16.5602C26.5131 16.5995 26.5893 16.8348 26.4557 16.98L23.5211 20.1685C23.322 20.3848 23.2267 20.6769 23.2598 20.969L23.7475 25.266C23.7696 25.4612 23.5707 25.6063 23.3916 25.5254L19.4173 23.7323C19.1523 23.6127 18.8488 23.6127 18.5838 23.7323L14.6095 25.5254C14.4304 25.6063 14.2314 25.4612 14.2536 25.266L14.7413 20.969C14.7744 20.6769 14.6791 20.3848 14.48 20.1685L11.5454 16.98C11.4118 16.8348 11.488 16.5995 11.6813 16.5602L15.9493 15.6924C16.2354 15.6343 16.4825 15.4555 16.6273 15.202L18.7806 11.4326Z" fill="#444444"/>
<path fill-rule="evenodd" clip-rule="evenodd" d="M23.83 12.955C23.6196 12.7983 23.5773 12.5016 23.7353 12.2922L24.3687 11.4535C24.5268 11.2441 24.8255 11.2015 25.0358 11.3582C25.2462 11.5149 25.2886 11.8116 25.1305 12.021L24.4972 12.8597C24.3391 13.0691 24.0404 13.1117 23.83 12.955Z" fill="#444444"/>
<path fill-rule="evenodd" clip-rule="evenodd" d="M23.7725 13.0308C23.5201 12.8428 23.4692 12.4867 23.6589 12.2354L24.2923 11.3967C24.482 11.1455 24.8404 11.0943 25.0928 11.2823C25.3453 11.4704 25.3962 11.8265 25.2065 12.0777L24.5731 12.9164C24.3834 13.1677 24.025 13.2189 23.7725 13.0308ZM23.8113 12.3489C23.6848 12.5164 23.7187 12.7538 23.887 12.8792C24.0553 13.0045 24.2943 12.9704 24.4207 12.8029L25.0541 11.9642C25.1806 11.7967 25.1466 11.5593 24.9783 11.434C24.81 11.3086 24.5711 11.3427 24.4446 11.5102L23.8113 12.3489Z" fill="#444444"/>
<path fill-rule="evenodd" clip-rule="evenodd" d="M14.1696 12.955C14.3799 12.7983 14.4223 12.5016 14.2642 12.2922L13.6309 11.4535C13.4728 11.2441 13.1741 11.2015 12.9637 11.3582C12.7534 11.5149 12.711 11.8116 12.869 12.021L13.5024 12.8597C13.6605 13.0691 13.9592 13.1117 14.1696 12.955Z" fill="#444444"/>
<path fill-rule="evenodd" clip-rule="evenodd" d="M14.2266 13.0308C14.479 12.8428 14.5299 12.4867 14.3402 12.2354L13.7068 11.3967C13.5171 11.1455 13.1587 11.0943 12.9063 11.2823C12.6538 11.4704 12.6029 11.8265 12.7926 12.0777L13.426 12.9164C13.6157 13.1677 13.9741 13.2189 14.2266 13.0308ZM14.1878 12.3489C14.3143 12.5164 14.2804 12.7538 14.1121 12.8792C13.9438 13.0045 13.7048 12.9704 13.5784 12.8029L12.945 11.9642C12.8185 11.7967 12.8525 11.5593 13.0208 11.434C13.1891 11.3086 13.428 11.3427 13.5545 11.5102L14.1878 12.3489Z" fill="#444444"/>
<path fill-rule="evenodd" clip-rule="evenodd" d="M11.5528 21.8177C11.6418 22.0644 11.5136 22.3358 11.2665 22.4237L10.2695 22.7784C10.0223 22.8663 9.74984 22.7375 9.66084 22.4908C9.57185 22.244 9.70006 21.9727 9.94722 21.8847L10.9442 21.5301C11.1913 21.4421 11.4638 21.5709 11.5528 21.8177Z" fill="#444444"/>
<path fill-rule="evenodd" clip-rule="evenodd" d="M11.6424 21.7859C11.7492 22.082 11.5953 22.4076 11.2988 22.5131L10.3018 22.8678C10.0052 22.9733 9.67819 22.8187 9.5714 22.5226C9.46461 22.2265 9.61846 21.9009 9.91505 21.7954L10.912 21.4407C11.2086 21.3352 11.5356 21.4897 11.6424 21.7859ZM11.2343 22.3343C11.432 22.264 11.5346 22.047 11.4634 21.8495C11.3922 21.6521 11.1742 21.5491 10.9765 21.6194L9.97951 21.9741C9.78179 22.0445 9.67922 22.2615 9.75041 22.4589C9.82161 22.6564 10.0396 22.7594 10.2373 22.689L11.2343 22.3343Z" fill="#444444"/>
<path fill-rule="evenodd" clip-rule="evenodd" d="M26.4463 21.8177C26.3573 22.0644 26.4855 22.3358 26.7326 22.4237L27.7296 22.7784C27.9768 22.8663 28.2493 22.7375 28.3383 22.4908C28.4272 22.244 28.299 21.9727 28.0519 21.8847L27.0549 21.5301C26.8078 21.4421 26.5353 21.5709 26.4463 21.8177Z" fill="#444444"/>
<path fill-rule="evenodd" clip-rule="evenodd" d="M26.3572 21.7859C26.2504 22.082 26.4042 22.4076 26.7008 22.5131L27.6978 22.8678C27.9944 22.9733 28.3214 22.8187 28.4282 22.5226C28.535 22.2265 28.3811 21.9009 28.0845 21.7954L27.0875 21.4407C26.791 21.3352 26.464 21.4897 26.3572 21.7859ZM26.7653 22.3343C26.5676 22.264 26.465 22.047 26.5362 21.8495C26.6074 21.6521 26.8254 21.5491 27.0231 21.6194L28.0201 21.9741C28.2178 22.0445 28.3204 22.2615 28.2492 22.4589C28.178 22.6564 27.96 22.7594 27.7623 22.689L26.7653 22.3343Z" fill="#444444"/>
<path fill-rule="evenodd" clip-rule="evenodd" d="M18.9178 27.2849C19.1801 27.2849 19.3928 27.4975 19.3928 27.7599L19.3928 28.806C19.3928 29.0683 19.1801 29.2809 18.9178 29.2809C18.6555 29.2809 18.4428 29.0683 18.4428 28.806L18.4428 27.7599C18.4428 27.4975 18.6555 27.2849 18.9178 27.2849Z" fill="#444444"/>
<path fill-rule="evenodd" clip-rule="evenodd" d="M18.9179 27.1899C19.2327 27.1899 19.4879 27.4451 19.4879 27.7599L19.4879 28.806C19.4879 29.1207 19.2327 29.3759 18.9179 29.3759C18.6031 29.3759 18.3479 29.1207 18.3479 28.806L18.3479 27.7599C18.3479 27.4451 18.6031 27.1899 18.9179 27.1899ZM19.2979 27.7599C19.2979 27.55 19.1278 27.3799 18.9179 27.3799C18.7081 27.3799 18.5379 27.55 18.5379 27.7599L18.5379 28.806C18.5379 29.0158 18.7081 29.1859 18.9179 29.1859C19.1278 29.1859 19.2979 29.0158 19.2979 28.806L19.2979 27.7599Z" fill="#444444"/>
</svg>
