<svg width="38" height="38" viewBox="0 0 38 38" fill="none" xmlns="http://www.w3.org/2000/svg">
<path d="M19.0764 27.0655H12.6924C11.7709 27.0655 11.0204 26.315 11.0204 25.3935V15.6655C11.0204 14.744 11.7709 13.9935 12.6924 13.9935H19.7509C20.6724 13.9935 21.4229 14.744 21.4229 15.6655V17.7935C21.4229 18.0785 21.1854 18.316 20.9004 18.316C20.6154 18.316 20.3779 18.0785 20.3779 17.7935V15.6655C20.3779 15.3235 20.0929 15.0385 19.7509 15.0385H12.6924C12.3504 15.0385 12.0654 15.3235 12.0654 15.6655V25.3935C12.0654 25.7355 12.3504 26.0205 12.6924 26.0205H19.0764C19.3614 26.0205 19.5989 26.258 19.5989 26.543C19.5989 26.828 19.3614 27.0655 19.0764 27.0655Z" fill="#444444"/>
<path d="M25.698 27.0655H17.3C16.426 27.0655 15.704 26.353 15.704 25.4695V18.9335C15.704 18.0595 16.4165 17.3375 17.3 17.3375H25.698C26.572 17.3375 27.294 18.05 27.294 18.9335V25.4695C27.294 26.3435 26.5815 27.0655 25.698 27.0655ZM17.3 18.392C16.996 18.392 16.749 18.639 16.749 18.943V25.479C16.749 25.783 16.996 26.03 17.3 26.03H25.698C26.002 26.03 26.249 25.783 26.249 25.479V18.943C26.249 18.639 26.002 18.392 25.698 18.392H17.3Z" fill="#444444"/>
<path d="M18.2594 16.3305C17.9744 16.3305 17.7369 16.093 17.7369 15.808V13.167C17.7369 12.331 17.0624 11.6565 16.2264 11.6565C15.3904 11.6565 14.7159 12.331 14.7159 13.167V15.808C14.7159 16.093 14.4784 16.3305 14.1934 16.3305C13.9084 16.3305 13.6709 16.093 13.6709 15.808V13.167C13.6709 11.761 14.8204 10.6115 16.2264 10.6115C17.6324 10.6115 18.7819 11.761 18.7819 13.167V15.808C18.7819 16.093 18.5444 16.3305 18.2594 16.3305Z" fill="#444444"/>
<path d="M21.4989 22.629C20.3019 22.629 19.3329 21.66 19.3329 20.463V20.216C19.3329 19.931 19.5703 19.6935 19.8553 19.6935C20.1403 19.6935 20.3779 19.931 20.3779 20.216V20.463C20.3779 21.0805 20.8814 21.584 21.4989 21.584C22.1164 21.584 22.6199 21.0805 22.6199 20.463V20.216C22.6199 19.931 22.8574 19.6935 23.1424 19.6935C23.4274 19.6935 23.6649 19.931 23.6649 20.216V20.463C23.6649 21.66 22.6959 22.629 21.4989 22.629Z" fill="#444444"/>
</svg>
