<svg width="72" height="72" viewBox="0 0 72 72" fill="none" xmlns="http://www.w3.org/2000/svg">
<rect x="1" y="1" width="70" height="70" rx="30" fill="#FCFCFC" stroke="#F4F4F4"/>
<rect x="25" y="30" width="14" height="17" rx="2" fill="white"/>
<rect x="33" y="34" width="14" height="13" rx="2" fill="white"/>
<path d="M36.1128 47.4012H27.0303C25.7615 47.4012 24.729 46.3687 24.729 45.0999L24.729 31.2574C24.729 29.9887 25.7615 28.9562 27.0303 28.9562L37.084 28.9562C38.3528 28.9562 39.3853 29.9887 39.3853 31.2574V34.2849C39.3853 34.6524 39.0878 34.9499 38.7115 34.9499C38.3353 34.9499 38.0465 34.6524 38.0465 34.2849V31.2574C38.0465 30.7237 37.609 30.2949 37.084 30.2949L27.0303 30.2949C26.4965 30.2949 26.0678 30.7324 26.0678 31.2574L26.0678 45.0999C26.0678 45.6337 26.5053 46.0624 27.0303 46.0624H36.1128C36.4803 46.0624 36.7865 46.3599 36.7865 46.7362C36.7865 47.1124 36.489 47.4012 36.1128 47.4012Z" fill="#59636F"/>
<path d="M45.5364 47.4011H33.5752C32.3677 47.4011 31.3877 46.4211 31.3877 45.2136L31.3877 35.9036C31.3877 34.6961 32.3677 33.7161 33.5752 33.7161H45.5364C46.7439 33.7161 47.7239 34.6961 47.7239 35.9036V45.2136C47.7239 46.4211 46.7439 47.4011 45.5364 47.4011ZM33.5752 35.0548C33.1027 35.0548 32.7264 35.4398 32.7264 35.9036V45.2136C32.7264 45.6861 33.1114 46.0623 33.5752 46.0623H45.5364C46.0089 46.0623 46.3852 45.6773 46.3852 45.2136V35.9036C46.3852 35.4311 46.0002 35.0548 45.5364 35.0548H33.5752Z" fill="#59636F"/>
<path d="M34.9492 32.1236C34.5817 32.1236 34.2842 31.8261 34.2842 31.4586V27.6961C34.2842 26.4711 33.2867 25.4736 32.0617 25.4736C30.8367 25.4736 29.8392 26.4711 29.8392 27.6961V31.4586C29.8392 31.8261 29.5417 32.1236 29.1742 32.1236C28.8067 32.1236 28.5005 31.8261 28.5005 31.4586V27.6961C28.5005 25.7361 30.1017 24.1349 32.0617 24.1349C34.0217 24.1349 35.623 25.7361 35.623 27.6961V31.4586C35.623 31.8261 35.3255 32.1236 34.958 32.1236H34.9492Z" fill="#59636F"/>
<path d="M39.5603 41.0836C37.9066 41.0836 36.5591 39.7361 36.5591 38.0824V37.7324C36.5591 37.3649 36.8566 37.0674 37.2328 37.0674C37.6091 37.0674 37.8978 37.3649 37.8978 37.7324V38.0824C37.8978 39.0011 38.6416 39.7449 39.5603 39.7449C40.4791 39.7449 41.2228 39.0011 41.2228 38.0824V37.7324C41.2228 37.3649 41.5203 37.0674 41.8878 37.0674C42.2553 37.0674 42.5616 37.3649 42.5616 37.7324V38.0824C42.5616 39.7361 41.2141 41.0836 39.5603 41.0836Z" fill="#59636F"/>
</svg>
