<svg width="72" height="72" viewBox="0 0 72 72" fill="none" xmlns="http://www.w3.org/2000/svg">
<rect x="1" y="1" width="70" height="70" rx="30" fill="#FCFCFC" stroke="#F4F4F4"/>
<g clip-path="url(#clip0_1207_629)">
<path d="M31 29L35.5 25.5H36L38.5 27L41 30L43.5 35L44.5 39L42.5 44L37.5 47L31.5 46L28 42L27.5 36.5L31 29Z" fill="white"/>
<path d="M36.0002 47.4975C32.3077 47.4975 29.954 45.415 29.114 44.5225C25.9027 41.0925 26.6027 36.805 27.7577 33.8125C29.7877 28.545 33.9702 25.535 35.204 24.73C35.6852 24.415 36.3152 24.415 36.8052 24.73C38.039 25.5263 42.2127 28.545 44.2515 33.8125C45.4065 36.805 46.1065 41.0925 42.8952 44.5225C41.854 45.6338 39.579 47.4975 36.009 47.4975H36.0002ZM36.0002 25.8413C36.0002 25.8413 35.9477 25.8413 35.9302 25.8588C34.784 26.6025 30.899 29.4025 29.009 34.2938C27.5302 38.1263 27.8977 41.2588 30.094 43.6038C30.8115 44.3738 32.824 46.15 36.0002 46.15C39.1765 46.15 41.014 44.5488 41.9065 43.6038C44.1027 41.2588 44.4702 38.1263 42.9915 34.2938C41.1015 29.4025 37.2165 26.6025 36.0702 25.8588C36.044 25.8413 36.0265 25.8325 36.0002 25.8325V25.8413Z" fill="#59636F"/>
<path d="M35.0464 43.2537C35.0464 43.2537 34.9939 43.2537 34.9764 43.2537C31.4851 42.8775 30.5576 40.0862 30.5576 38.6687C30.5576 38.3012 30.8551 37.995 31.2226 37.995C31.5901 37.995 31.8876 38.2925 31.8964 38.66C31.8964 38.9575 32.0189 41.5825 35.1251 41.9237C35.4926 41.9675 35.7551 42.2912 35.7201 42.6587C35.6851 43 35.3964 43.2537 35.0551 43.2537H35.0464Z" fill="#59636F"/>
</g>
<defs>
<clipPath id="clip0_1207_629">
<rect width="29.75" height="29.75" fill="white" transform="translate(21.125 21.125)"/>
</clipPath>
</defs>
</svg>
