<svg width="72" height="72" viewBox="0 0 72 72" fill="none" xmlns="http://www.w3.org/2000/svg">
<rect x="1" y="1" width="70" height="70" rx="30" fill="#FCFCFC" stroke="#F4F4F4"/>
<path d="M25.5 34L27 32C27 30 28.8 26 36 26C43.2 26 45.6667 31.3333 46 34C46.8333 34.1667 48.5 34.9 48.5 36.5C48.5 38.1 46.5 38.8333 45.5 39C45.3333 41.3333 43.3 46 36.5 46C29.7 46 26.6667 41.3333 26 39L24 38L23.5 35L25.5 34Z" fill="white"/>
<path d="M36.2794 34.1448C36.1306 34.1448 35.9906 34.1448 35.8419 34.1186C33.8731 33.8911 32.6919 32.5873 32.6919 30.6448C32.6919 29.4286 33.4356 28.0111 35.0631 27.7573C35.9469 27.6173 36.5506 27.9236 36.9094 28.2036C37.3731 28.5711 37.6794 29.1223 37.7231 29.6473C37.8019 30.6361 37.1544 31.4848 36.1481 31.6948C35.7806 31.7736 35.4306 31.5373 35.3519 31.1786C35.2731 30.8198 35.5094 30.4611 35.8681 30.3823C36.3756 30.2773 36.4019 29.9011 36.3931 29.7436C36.3931 29.6386 36.2969 29.4111 36.0869 29.2448C35.8769 29.0786 35.6056 29.0173 35.2819 29.0698C34.3019 29.2186 34.0394 30.1198 34.0394 30.6361C34.0394 31.5111 34.3806 32.5873 35.9994 32.7798C36.6731 32.8586 37.3294 32.6486 37.8369 32.1936C38.4056 31.6861 38.7381 30.9248 38.7381 30.1023C38.7381 28.3086 37.9069 26.8036 37.8981 26.7861C37.7144 26.4623 37.8281 26.0598 38.1519 25.8761C38.4756 25.6923 38.8781 25.8061 39.0619 26.1298C39.1056 26.1998 40.0681 27.9411 40.0681 30.1023C40.0681 31.3011 39.5781 32.4298 38.7206 33.1911C38.0294 33.8036 37.1806 34.1273 36.2794 34.1273V34.1448Z" fill="#2D3E52"/>
<path d="M31.0732 37.6711C30.7057 37.6711 30.3994 37.3736 30.3994 37.0061V36.2186C30.3994 35.8511 30.6969 35.5536 31.0732 35.5536C31.4494 35.5536 31.7382 35.8511 31.7382 36.2186V37.0061C31.7382 37.3736 31.4407 37.6711 31.0732 37.6711Z" fill="#2D3E52"/>
<path d="M40.9257 37.6711C40.5582 37.6711 40.2607 37.3736 40.2607 37.0061V36.2186C40.2607 35.8511 40.5582 35.5536 40.9257 35.5536C41.2932 35.5536 41.5907 35.8511 41.5907 36.2186V37.0061C41.5907 37.3736 41.2932 37.6711 40.9257 37.6711Z" fill="#2D3E52"/>
<path d="M35.9992 38.7649C35.343 38.7649 34.6867 38.5111 34.1267 38.0036L34.1005 37.9774C33.8292 37.7324 33.803 37.3036 34.0567 37.0324C34.3017 36.7611 34.7305 36.7349 35.0017 36.9886L35.028 37.0149C35.658 37.5836 36.3755 37.5749 36.9967 36.9974C37.268 36.7436 37.688 36.7611 37.9417 37.0324C38.1955 37.3036 38.178 37.7236 37.9067 37.9774C37.338 38.5024 36.6642 38.7736 35.9992 38.7736V38.7649Z" fill="#2D3E52"/>
<path d="M35.9993 46.876C31.2743 46.876 27.0831 43.8048 25.6481 39.3423C24.0818 39.2285 22.8306 37.916 22.8306 36.3235C22.8306 34.731 23.9768 33.5235 25.4556 33.3223C26.6631 28.536 31.0206 25.1235 35.9993 25.1235C40.9781 25.1235 45.3356 28.5448 46.5431 33.3223C48.0218 33.5235 49.1681 34.7923 49.1681 36.3235C49.1681 37.8548 47.9256 39.2373 46.3506 39.3423C44.9156 43.8048 40.7243 46.876 35.9993 46.876ZM26.1468 37.9948C26.4443 37.9948 26.7156 38.196 26.7943 38.4935C27.9143 42.641 31.7031 45.546 35.9993 45.546C40.2956 45.546 44.0843 42.6498 45.2043 38.4935C45.2918 38.1698 45.5981 37.9598 45.9306 38.0035C46.0006 38.0035 46.0618 38.021 46.1318 38.021C47.0593 38.021 47.8206 37.2598 47.8206 36.3323C47.8206 35.4048 47.0593 34.6435 46.1318 34.6435C46.1143 34.6435 46.0968 34.6435 46.0793 34.6435H46.0356C45.6943 34.6698 45.4056 34.4335 45.3356 34.1098C44.4431 29.6823 40.5143 26.4623 35.9818 26.4623C31.4493 26.4623 27.5381 29.6735 26.6456 34.101C26.5756 34.4248 26.2868 34.661 25.9456 34.6348H25.9018C25.9018 34.6348 25.8668 34.6348 25.8493 34.6348C24.9218 34.6348 24.1606 35.396 24.1606 36.3235C24.1606 37.251 24.9218 38.0123 25.8493 38.0123C25.9193 38.0123 25.9893 38.0123 26.0506 37.9948C26.0768 37.9948 26.1031 37.9948 26.1293 37.9948H26.1468Z" fill="#2D3E52"/>
</svg>
