<svg width="72" height="72" viewBox="0 0 72 72" fill="none" xmlns="http://www.w3.org/2000/svg">
<rect x="1" y="1" width="70" height="70" rx="30" fill="#FCFCFC" stroke="#F4F4F4"/>
<path d="M26 43.5V30L26.5 28L29 26L36 25C37.6667 25.5 41.2 26.6 42 27C42.8 27.4 43 28.5 43 29V32.5C43 32.9 45.3333 33.3333 46.5 33.5V45L45 46.5H30.5L26 43.5Z" fill="white"/>
<path d="M26.1738 43.77C25.8063 43.77 25.5088 43.4725 25.5088 43.105V28.895C25.5088 28.5275 25.8063 28.23 26.1738 28.23C26.5413 28.23 26.8475 28.5275 26.8475 28.895V43.105C26.8475 43.4725 26.55 43.77 26.1738 43.77Z" fill="#59636F"/>
<path d="M34.635 33.2438C29.4287 33.2438 25.5 31.3713 25.5 28.895C25.5 26.4188 29.4287 24.5463 34.635 24.5463C39.8412 24.5463 43.77 26.4188 43.77 28.895C43.77 31.3713 39.8412 33.2438 34.635 33.2438ZM34.635 25.885C30.0412 25.885 26.8388 27.4688 26.8388 28.895C26.8388 30.3213 30.0412 31.905 34.635 31.905C39.2287 31.905 42.4312 30.3213 42.4312 28.895C42.4312 27.4688 39.2287 25.885 34.635 25.885Z" fill="#59636F"/>
<path d="M34.6351 29.875C32.4826 29.875 32.1938 29.3763 32.1938 28.895C32.1938 28.4138 32.4826 27.915 34.6351 27.915C36.7876 27.915 37.0763 28.4138 37.0763 28.895C37.0763 29.3763 36.7876 29.875 34.6351 29.875Z" fill="#59636F"/>
<path d="M34.635 47.4538C29.4287 47.4538 25.5 45.5813 25.5 43.105C25.5 42.7375 25.7975 42.4313 26.165 42.4313C26.5325 42.4313 26.8388 42.7288 26.8388 43.105C26.8388 44.5313 30.0412 46.115 34.635 46.115C35.0025 46.115 35.3087 46.4125 35.3087 46.78C35.3087 47.1475 35.0112 47.445 34.635 47.445V47.4538Z" fill="#59636F"/>
<path d="M43.0962 33.2437C42.7287 33.2437 42.4312 32.9462 42.4312 32.5787V28.895C42.4312 28.5275 42.7287 28.23 43.0962 28.23C43.4637 28.23 43.7699 28.5275 43.7699 28.895V32.5787C43.7699 32.9462 43.4724 33.2437 43.0962 33.2437Z" fill="#59636F"/>
<path d="M44.2602 47.4538H34.6352C34.2677 47.4538 33.9614 47.1563 33.9614 46.7888C33.9614 46.4213 34.2589 46.1238 34.6352 46.1238H44.2602C45.0827 46.1238 45.7564 45.45 45.7564 44.6275V34.74C45.7564 33.9175 45.0827 33.2438 44.2602 33.2438H34.6352C34.2677 33.2438 33.9614 32.9463 33.9614 32.5788C33.9614 32.2113 34.2589 31.905 34.6352 31.905H44.2602C45.8264 31.905 47.0952 33.1738 47.0952 34.74V44.6188C47.0952 46.185 45.8264 47.4538 44.2602 47.4538Z" fill="#59636F"/>
<path d="M35.7026 36.9275C35.3351 36.9275 35.0376 36.63 35.0376 36.2625V35.5188C35.0376 35.1513 35.3351 34.8538 35.7026 34.8538C36.0701 34.8538 36.3676 35.1513 36.3676 35.5188V36.2625C36.3676 36.63 36.0701 36.9275 35.7026 36.9275Z" fill="#59636F"/>
<path d="M35.7026 41.0663C35.3351 41.0663 35.0376 40.7688 35.0376 40.4013V39.0188C35.0376 38.6513 35.3351 38.3538 35.7026 38.3538C36.0701 38.3538 36.3676 38.6513 36.3676 39.0188V40.4013C36.3676 40.7688 36.0701 41.0663 35.7026 41.0663Z" fill="#59636F"/>
<path d="M35.7026 44.5663C35.3351 44.5663 35.0376 44.2688 35.0376 43.9013V43.1576C35.0376 42.7901 35.3351 42.4926 35.7026 42.4926C36.0701 42.4926 36.3676 42.7901 36.3676 43.1576V43.9013C36.3676 44.2688 36.0701 44.5663 35.7026 44.5663Z" fill="#59636F"/>
</svg>
