<svg width="72" height="72" viewBox="0 0 72 72" fill="none" xmlns="http://www.w3.org/2000/svg">
<rect x="1" y="1" width="70" height="70" rx="30" fill="#FCFCFC" stroke="#F4F4F4"/>
<g clip-path="url(#clip0_1207_647)">
<path d="M25.625 35.5V32.5V31L27.125 29.5L29.125 29L31.125 29.5V28.5L32.125 26.5L34.625 25H37.125L39.625 26L40.125 27.5L41.625 29L44.125 29.5L46.125 30L47.125 33.5L46.125 36.5L43.625 37.5V45.5L41.625 46.5L31.625 47L29.125 46L28.625 44V37.5L27.625 37L25.625 35.5Z" fill="white"/>
<path d="M29.0005 45.1875V43H43.438V45.1875L41.688 46.9375H30.7505L29.0005 45.1875Z" fill="white"/>
<path d="M28.4748 37.9425C26.0161 37.9425 24.3623 36.0087 24.3623 33.1387C24.3623 30.4875 26.5061 28.335 29.1398 28.335C29.6473 28.335 30.1548 28.4137 30.6361 28.5712C30.9861 28.685 31.1786 29.07 31.0648 29.42C30.9511 29.77 30.5748 29.9625 30.2161 29.8487C29.8661 29.735 29.5073 29.6737 29.1398 29.6737C27.2411 29.6737 25.7011 31.2312 25.7011 33.1387C25.7011 34.81 26.4273 36.6037 28.4748 36.6037C28.8423 36.6037 29.1398 36.9012 29.1398 37.2775C29.1398 37.6537 28.8423 37.9425 28.4748 37.9425Z" fill="#59636F"/>
<path d="M43.5247 37.9425C43.1572 37.9425 42.8597 37.645 42.8597 37.2775C42.8597 36.91 43.1572 36.6037 43.5247 36.6037C45.5722 36.6037 46.2984 34.81 46.2984 33.1387C46.2984 31.2312 44.7497 29.6737 42.8597 29.6737C42.4922 29.6737 42.1422 29.7262 41.8009 29.84C41.4509 29.9537 41.0747 29.7612 40.9609 29.4112C40.8472 29.0612 41.0397 28.685 41.3897 28.5712C41.8622 28.4137 42.3609 28.335 42.8684 28.335C45.5022 28.335 47.6459 30.4875 47.6459 33.1387C47.6459 36.0087 45.9922 37.9425 43.5334 37.9425H43.5247Z" fill="#59636F"/>
<path d="M41.0748 30.6274C40.7073 30.6274 40.4098 30.3299 40.4098 29.9624C40.4098 27.6874 38.4323 25.8412 36.0085 25.8412C33.5848 25.8412 31.5985 27.6874 31.5985 29.9624C31.5985 30.3299 31.301 30.6274 30.9248 30.6274C30.5485 30.6274 30.2598 30.3299 30.2598 29.9624C30.2598 26.9524 32.841 24.5024 36.0085 24.5024C39.176 24.5024 41.7485 26.9524 41.7485 29.9624C41.7485 30.3299 41.451 30.6274 41.0748 30.6274Z" fill="#59636F"/>
<path d="M43.2361 43.8137H28.7636C28.3961 43.8137 28.0986 43.5162 28.0986 43.1487C28.0986 42.7812 28.3961 42.475 28.7636 42.475H43.2361C43.6036 42.475 43.9011 42.7725 43.9011 43.1487C43.9011 43.525 43.6036 43.8137 43.2361 43.8137Z" fill="#59636F"/>
<path d="M33.4535 41.1799C33.086 41.1799 32.7798 40.8824 32.7798 40.5149V37.1462C32.7798 36.7787 33.0773 36.4724 33.4535 36.4724C33.8298 36.4724 34.1185 36.7699 34.1185 37.1462V40.5149C34.1185 40.8824 33.821 41.1799 33.4535 41.1799Z" fill="#59636F"/>
<path d="M38.5459 41.1799C38.1784 41.1799 37.8809 40.8824 37.8809 40.5149V37.1462C37.8809 36.7787 38.1784 36.4724 38.5459 36.4724C38.9134 36.4724 39.2109 36.7699 39.2109 37.1462V40.5149C39.2109 40.8824 38.9134 41.1799 38.5459 41.1799Z" fill="#59636F"/>
<path d="M40.4621 47.4975H31.5371C29.4808 47.4975 27.8096 45.8262 27.8096 43.77V37.2687C27.8096 36.9012 28.1071 36.595 28.4833 36.595C28.8596 36.595 29.1483 36.8925 29.1483 37.2687V43.77C29.1483 45.0825 30.2158 46.1587 31.5371 46.1587H40.4708C41.7833 46.1587 42.8596 45.0912 42.8596 43.77V37.2687C42.8596 36.9012 43.1571 36.595 43.5246 36.595C43.8921 36.595 44.1896 36.8925 44.1896 37.2687V43.77C44.1896 45.8262 42.5183 47.4975 40.4621 47.4975Z" fill="#59636F"/>
</g>
<defs>
<clipPath id="clip0_1207_647">
<rect width="29.75" height="29.75" fill="white" transform="translate(21.125 21.125)"/>
</clipPath>
</defs>
</svg>
