<svg width="72" height="72" viewBox="0 0 72 72" fill="none" xmlns="http://www.w3.org/2000/svg">
<rect x="1" y="1" width="70" height="70" rx="30" fill="#FCFCFC" stroke="#F4F4F4"/>
<g clip-path="url(#clip0_1207_675)">
<path d="M27.5002 32.5L29.5002 29.5L31.5 28H34.5L36 27L38.5 25.5L39.5 26L40 27.5L42 28.5L43 31L44.5 32L45 34.5L46.5 36.5V43.5L44.5 46L28 46.5L26 44.5C25.8334 42.1667 25.4002 37.6 25.0002 38C24.6002 38.4 26.1669 36.1667 27.0002 35L27.5002 32.5Z" fill="white"/>
<path d="M30.312 28.125L28.9995 31.1875H43.437L42.562 29.875L41.2495 28.125L39.937 26.8125L38.6245 25.5L37.312 26.8125L33.812 28.125H30.312Z" fill="white"/>
<path d="M41.3813 43.7875C41.0138 43.7875 40.7075 43.49 40.7075 43.1137C40.7075 42.7375 41.005 42.4487 41.3813 42.4487C42.265 42.4487 42.9825 41.7312 42.9825 40.8475C42.9825 40.48 43.28 40.1825 43.6563 40.1825C44.0325 40.1825 44.3213 40.48 44.3213 40.8475C44.3213 42.4662 43 43.7875 41.3813 43.7875Z" fill="#59636F"/>
<path d="M42.9998 46.9549H28.9998C26.6198 46.9549 24.686 45.0212 24.686 42.6412V37.7062C24.686 35.8074 26.2348 34.2587 28.1335 34.2587H43.8573C45.756 34.2587 47.3048 35.8074 47.3048 37.7062V42.6412C47.3048 45.0212 45.371 46.9549 42.991 46.9549H42.9998ZM28.1423 35.5974C26.9785 35.5974 26.0335 36.5424 26.0335 37.7062V42.6412C26.0335 44.2774 27.3635 45.6162 29.0085 45.6162H42.9998C44.636 45.6162 45.9748 44.2862 45.9748 42.6412V37.7062C45.9748 36.5424 45.0298 35.5974 43.866 35.5974H28.1423Z" fill="#59636F"/>
<path d="M44.9861 35.5974H27.0136C26.6461 35.5974 26.3398 35.2999 26.3398 34.9237V33.5062C26.3398 31.9924 27.5736 30.7587 29.0873 30.7587H42.9036C44.4173 30.7587 45.6511 31.9924 45.6511 33.5062V34.9237C45.6511 35.2912 45.3536 35.5974 44.9861 35.5974ZM27.6873 34.2587H44.3123V33.5062C44.3123 32.7274 43.6823 32.0974 42.9036 32.0974H29.0961C28.3173 32.0974 27.6873 32.7274 27.6873 33.5062V34.2587Z" fill="#59636F"/>
<path d="M43.2623 32.1062H28.7373C28.3698 32.1062 28.0723 31.8087 28.0723 31.4412C28.0723 29.1487 29.936 27.2762 32.2373 27.2762H33.7335C34.661 27.2762 35.536 27.0575 36.2798 26.6462C36.8398 26.3312 37.3123 25.955 37.6885 25.5175C38.0735 25.0537 38.6773 24.9225 39.2898 25.1675C40.0598 25.4737 40.8648 26.41 40.8648 27.425C42.676 27.915 43.936 29.56 43.936 31.4412C43.936 31.8087 43.6385 32.1062 43.271 32.1062H43.2623ZM29.481 30.7675H42.5098C42.2735 29.7787 41.5035 28.9737 40.4885 28.7025C39.9023 28.5887 39.491 28.055 39.5173 27.4512C39.526 27.1975 39.351 26.8475 39.0885 26.6025C38.8873 26.4187 38.721 26.375 38.686 26.375C38.231 26.935 37.6273 27.4162 36.9273 27.81C35.9823 28.335 34.8798 28.6062 33.7335 28.6062H32.2373C30.9073 28.6062 29.796 29.525 29.4898 30.7587L29.481 30.7675Z" fill="#59636F"/>
</g>
<defs>
<clipPath id="clip0_1207_675">
<rect width="29.75" height="29.75" fill="white" transform="translate(21.125 21.125)"/>
</clipPath>
</defs>
</svg>
