<svg width="72" height="72" viewBox="0 0 72 72" fill="none" xmlns="http://www.w3.org/2000/svg">
<rect x="1" y="1" width="70" height="70" rx="30" fill="#FCFCFC" stroke="#F4F4F4"/>
<path d="M25 30L26.5 28.5L28 26.5L30 26L35.5 25.5L41.5 26L45.5 27.5L47 30.5L46.5 33.5L44.5 36.5V44.5L43.5 46L36 46.5L29 46L27.5 43.5V35.5L25 32.5V30Z" fill="white"/>
<path d="M40.8125 43.4375L39.5 46.0625L42.125 46.5L44.75 44.75V40.375V36.4375L45.625 34.6875L46.9375 32.9375V30.3125L45.625 28.125L41.6875 25.5H38.625L42.125 28.125L43 32.5L40.8125 35.5625V43.4375Z" fill="white"/>
<path d="M37.2862 47.13H30.5487C28.4049 47.13 26.6637 45.3887 26.6637 43.245V36.77C26.6637 36.105 26.3749 35.4837 25.8849 35.125C25.1499 34.5737 24.2749 33.445 24.2749 31.1875C24.2749 29.3937 25.2899 27.7312 27.1187 26.5062C28.6499 25.4825 30.6012 24.87 32.3424 24.87H35.5012C37.2337 24.87 39.1849 25.4825 40.7249 26.5062C42.5624 27.7312 43.5687 29.3937 43.5687 31.1875C43.5687 33.445 42.6937 34.5737 41.9587 35.125C41.4687 35.4925 41.1799 36.105 41.1799 36.77V43.245C41.1799 45.3887 39.4387 47.13 37.2949 47.13H37.2862ZM32.3337 26.2087C30.8724 26.2087 29.1574 26.7512 27.8537 27.6175C27.0137 28.1775 25.6049 29.385 25.6049 31.1875C25.6049 32.535 25.9812 33.5237 26.6812 34.0487C27.5037 34.6612 27.9937 35.6762 27.9937 36.77V43.245C27.9937 44.6537 29.1399 45.7912 30.5399 45.7912H37.2774C38.6862 45.7912 39.8237 44.645 39.8237 43.245V36.77C39.8237 35.685 40.3137 34.67 41.1362 34.0487C41.8362 33.5237 42.2124 32.535 42.2124 31.1875C42.2124 29.385 40.8037 28.1775 39.9637 27.6175C38.6599 26.7512 36.9449 26.2087 35.4837 26.2087H32.3249H32.3337Z" fill="#59636F"/>
<path d="M41.4948 47.13H35.9998V45.7912H41.4948C42.8773 45.7912 44.006 44.6625 44.006 43.28V36.7612C44.006 35.6762 44.496 34.6612 45.3185 34.04C46.0185 33.515 46.3948 32.5262 46.3948 31.1787C46.3948 29.3762 44.986 28.1687 44.146 27.6087C42.8423 26.7425 41.1273 26.2 39.666 26.2H32.3423V24.8612H39.666C41.3985 24.8612 43.3498 25.4737 44.8898 26.4975C46.7273 27.7225 47.7335 29.385 47.7335 31.1787C47.7335 33.4362 46.8585 34.565 46.1235 35.1162C45.6335 35.4837 45.3448 36.0962 45.3448 36.7612V43.28C45.3448 45.3975 43.621 47.13 41.4948 47.13Z" fill="#59636F"/>
<path d="M33.4101 40.7249C33.2351 40.7249 33.0688 40.6637 32.9376 40.5324C32.6751 40.2699 32.6751 39.8499 32.9376 39.5874L36.5338 35.9912C36.7963 35.7287 37.2163 35.7287 37.4788 35.9912C37.7413 36.2537 37.7413 36.6737 37.4788 36.9362L33.8826 40.5324C33.7513 40.6637 33.5851 40.7249 33.4101 40.7249Z" fill="#59636F"/>
<path d="M30.8286 38.1438C30.6536 38.1438 30.4873 38.0825 30.3561 37.9513C30.0936 37.6888 30.0936 37.2688 30.3561 37.0063L33.9523 33.41C34.2148 33.1475 34.6348 33.1475 34.8973 33.41C35.1598 33.6725 35.1598 34.0925 34.8973 34.355L31.3011 37.9513C31.1698 38.0825 31.0036 38.1438 30.8286 38.1438Z" fill="#59636F"/>
</svg>
