<svg width="72" height="72" viewBox="0 0 72 72" fill="none" xmlns="http://www.w3.org/2000/svg">
<rect x="1" y="1" width="70" height="70" rx="30" fill="#FCFCFC" stroke="#F4F4F4"/>
<g clip-path="url(#clip0_1207_661)">
<circle cx="31.125" cy="41.125" r="6" fill="white"/>
<circle cx="43" cy="35" r="4" fill="white"/>
<circle cx="32.5" cy="28.5" r="3.5" fill="white"/>
<path d="M31.4849 47.9088C27.8712 47.9088 24.9312 44.9688 24.9312 41.355C24.9312 37.7413 27.8712 34.8013 31.4849 34.8013C35.0987 34.8013 38.0387 37.7413 38.0387 41.355C38.0387 44.9688 35.0987 47.9088 31.4849 47.9088ZM31.4849 36.14C28.6062 36.14 26.2699 38.4763 26.2699 41.355C26.2699 44.2338 28.6062 46.57 31.4849 46.57C34.3637 46.57 36.6999 44.2338 36.6999 41.355C36.6999 38.4763 34.3637 36.14 31.4849 36.14Z" fill="#59636F"/>
<path d="M31.4848 44.75C29.6123 44.75 28.0898 43.2275 28.0898 41.355C28.0898 40.9875 28.3873 40.6813 28.7548 40.6813C29.1223 40.6813 29.4198 40.9788 29.4198 41.355C29.4198 42.4925 30.3386 43.4113 31.4761 43.4113C31.8436 43.4113 32.1411 43.7088 32.1411 44.0763C32.1411 44.4438 31.8436 44.75 31.4761 44.75H31.4848Z" fill="#59636F"/>
<path d="M43.0964 39.7188C40.5851 39.7188 38.5464 37.68 38.5464 35.1688C38.5464 32.6575 40.5851 30.6188 43.0964 30.6188C45.6076 30.6188 47.6464 32.6575 47.6464 35.1688C47.6464 37.68 45.6076 39.7188 43.0964 39.7188ZM43.0964 31.9488C41.3201 31.9488 39.8851 33.3925 39.8851 35.16C39.8851 36.9275 41.3289 38.3713 43.0964 38.3713C44.8639 38.3713 46.3076 36.9275 46.3076 35.16C46.3076 33.3925 44.8639 31.9488 43.0964 31.9488Z" fill="#59636F"/>
<path d="M44.5136 35.8338C44.1461 35.8338 43.8399 35.5363 43.8399 35.1688C43.8399 34.7575 43.5074 34.4163 43.0874 34.4163C42.7199 34.4163 42.4224 34.1188 42.4224 33.7513C42.4224 33.3838 42.7199 33.0775 43.0874 33.0775C44.2424 33.0775 45.1786 34.0138 45.1786 35.1688C45.1786 35.5363 44.8811 35.8338 44.5136 35.8338Z" fill="#59636F"/>
<path d="M32.7713 32.43C30.6363 32.43 28.895 30.6887 28.895 28.5537C28.895 26.4187 30.6363 24.6775 32.7713 24.6775C34.9063 24.6775 36.6475 26.4187 36.6475 28.5537C36.6475 30.6887 34.9063 32.43 32.7713 32.43ZM32.7713 26.025C31.3713 26.025 30.2338 27.1625 30.2338 28.5625C30.2338 29.9625 31.3713 31.1 32.7713 31.1C34.1713 31.1 35.3088 29.9625 35.3088 28.5625C35.3088 27.1625 34.1713 26.025 32.7713 26.025Z" fill="#59636F"/>
</g>
<defs>
<clipPath id="clip0_1207_661">
<rect width="29.75" height="29.75" fill="white" transform="translate(21.125 21.125)"/>
</clipPath>
</defs>
</svg>
