<svg width="72" height="72" viewBox="0 0 72 72" fill="none" xmlns="http://www.w3.org/2000/svg">
<rect x="1" y="1" width="70" height="70" rx="30" fill="#FCFCFC" stroke="#F4F4F4"/>
<path d="M28.5 44.5L24.5 36V33.5L26 30.5L29 29.5L29.5 27.5L31.5 26L35 26.5L36.5 26H41.5L44 30L47 32.5L47.5 36L44.5 42L41.5 46L32.5 46.5L28.5 44.5Z" fill="white"/>
<path d="M32.5 37.75L35.5625 35.5625L37.75 36L39.5 38.1875L40.375 41.25L39.5 42.5625H35.5625H32.5L31.625 41.25L32.5 37.75Z" fill="white"/>
<circle cx="33.375" cy="30.75" r="1.75" fill="white"/>
<circle cx="38.625" cy="30.75" r="1.75" fill="white"/>
<circle cx="29" cy="35.125" r="1.75" fill="white"/>
<circle cx="43" cy="35.125" r="1.75" fill="white"/>
<path d="M38.5461 43.595C38.0649 43.595 37.5749 43.5338 37.1024 43.4813C36.6999 43.4288 36.3149 43.385 35.9999 43.385C35.6849 43.385 35.2999 43.4288 34.8974 43.4813C33.7336 43.6213 32.4036 43.7788 31.5461 43C31.0561 42.5538 30.8111 41.8713 30.8374 40.9788C30.9161 37.75 34.3899 34.8538 35.9999 34.8538C37.6099 34.8538 41.0836 37.75 41.1624 40.9788C41.1886 41.8713 40.9436 42.5538 40.4536 43C39.9374 43.4638 39.2636 43.595 38.5549 43.595H38.5461ZM35.9999 42.0463C36.3936 42.0463 36.8136 42.0988 37.2599 42.1513C38.0999 42.2475 39.1411 42.3788 39.5524 42.0113C39.7449 41.8363 39.8324 41.495 39.8236 41.0138C39.7624 38.5288 36.8311 36.1925 35.9999 36.1925C35.1686 36.1925 32.2374 38.5288 32.1761 41.0138C32.1674 41.5038 32.2549 41.8363 32.4474 42.0113C32.8499 42.3788 33.8999 42.2563 34.7399 42.1513C35.1861 42.0988 35.6061 42.0463 35.9999 42.0463Z" fill="#2D3E52"/>
<path d="M33.2439 33.3401C32.0714 33.3401 31.0302 32.3863 30.8464 31.0913C30.6539 29.6826 31.5464 28.3963 32.8414 28.2126C34.1364 28.0288 35.3439 29.0351 35.5364 30.4438C35.7289 31.8526 34.8364 33.1388 33.5414 33.3226C33.4452 33.3401 33.3402 33.3401 33.2439 33.3401ZM33.1389 29.5338C33.1389 29.5338 33.0602 29.5338 33.0252 29.5338C32.4652 29.6126 32.0889 30.2251 32.1764 30.8988C32.2727 31.5726 32.8064 32.0626 33.3664 31.9838C33.9264 31.9051 34.3114 31.2926 34.2152 30.6188C34.1277 29.9888 33.6639 29.5251 33.1477 29.5251L33.1389 29.5338Z" fill="#2D3E52"/>
<path d="M29.1571 37.4613C28.7634 37.4613 28.3696 37.3563 28.0109 37.1375C27.4771 36.8225 27.0659 36.3063 26.8734 35.685C26.6809 35.0638 26.7071 34.4075 26.9609 33.8388C27.2234 33.2438 27.7046 32.8063 28.2996 32.6138C28.8946 32.4213 29.5334 32.5 30.0934 32.8325C30.6271 33.1475 31.0384 33.6638 31.2309 34.285C31.4321 34.9063 31.3971 35.5625 31.1434 36.1313C30.8809 36.7263 30.3996 37.1638 29.8046 37.3563C29.5946 37.4263 29.3759 37.4613 29.1571 37.4613ZM28.9384 33.8563C28.8596 33.8563 28.7809 33.865 28.7021 33.8913C28.4746 33.9613 28.2909 34.1363 28.1859 34.3813C28.0634 34.6525 28.0546 34.9675 28.1509 35.2738C28.2471 35.58 28.4396 35.8338 28.6934 35.9825C28.9209 36.1225 29.1746 36.1488 29.4021 36.0788C29.6296 36.0088 29.8134 35.8338 29.9184 35.5888C30.0409 35.3175 30.0496 35.0025 29.9534 34.6963C29.8571 34.39 29.6646 34.1363 29.4109 33.9875C29.2621 33.9 29.0959 33.8563 28.9384 33.8563Z" fill="#2D3E52"/>
<path d="M38.7561 33.3401C38.6599 33.3401 38.5549 33.3401 38.4586 33.3226C37.1636 33.1476 36.2711 31.8526 36.4636 30.4438C36.6561 29.0351 37.8724 28.0288 39.1586 28.2126C40.4536 28.3876 41.3461 29.6826 41.1536 31.0913C40.9786 32.3863 39.9286 33.3401 38.7561 33.3401ZM37.7936 30.6276C37.6974 31.3013 38.0824 31.9138 38.6424 31.9926C39.2024 32.0713 39.7361 31.5813 39.8324 30.9076C39.9286 30.2338 39.5436 29.6213 38.9836 29.5426C38.4236 29.4638 37.8899 29.9538 37.7936 30.6276Z" fill="#2D3E52"/>
<path d="M42.8422 37.4613C42.6322 37.4613 42.4134 37.4263 42.2034 37.365C41.6084 37.1725 41.1359 36.7438 40.8647 36.14C40.6109 35.5713 40.5847 34.915 40.7772 34.2938C41.1972 32.99 42.5097 32.2375 43.7084 32.6138C44.3034 32.8063 44.7759 33.235 45.0472 33.8388C45.3009 34.4075 45.3272 35.0638 45.1347 35.685C44.7934 36.7613 43.8397 37.4613 42.8422 37.4613ZM43.0609 33.8563C42.6322 33.8563 42.2122 34.1975 42.0459 34.705C41.9497 35.0113 41.9584 35.3263 42.0809 35.5975C42.1859 35.8425 42.3697 36.0175 42.5972 36.0875C43.0959 36.245 43.6559 35.8863 43.8484 35.2825C43.9447 34.9763 43.9359 34.6613 43.8134 34.39C43.7084 34.145 43.5247 33.97 43.2972 33.9C43.2184 33.8738 43.1397 33.865 43.0609 33.865V33.8563Z" fill="#2D3E52"/>
<path d="M38.7035 47.0601H33.296C30.3997 47.0601 28.2472 45.5201 27.3985 42.8426C26.8035 40.9876 25.8585 39.4738 25.0972 38.2663C24.5022 37.3213 24.0385 36.5776 23.8897 35.9126C23.636 34.7751 23.8722 32.8588 24.7997 31.3888C25.5085 30.2776 26.541 29.5513 27.7747 29.2801C28.1685 29.1926 28.466 28.9126 28.5535 28.5451C28.816 27.4863 29.4635 26.0688 31.0647 25.3513C32.736 24.5988 34.4422 25.0013 35.4835 25.6401C35.7897 25.8326 36.1922 25.8326 36.4985 25.6401C37.5397 25.0013 39.246 24.5988 40.9172 25.3513C42.5272 26.0776 43.1747 27.4863 43.4285 28.5451C43.516 28.9126 43.8222 29.1926 44.2072 29.2801C47.6372 30.0238 48.451 34.0138 48.101 35.8863C47.9697 36.5863 47.4622 37.4088 46.806 38.4588C46.0535 39.6663 45.1172 41.1713 44.5835 42.8426C43.726 45.5288 41.5735 47.0601 38.686 47.0601H38.7035ZM32.981 26.2788C32.5435 26.2788 32.0797 26.3663 31.6247 26.5676C30.5135 27.0751 30.0497 28.0901 29.8572 28.8601C29.6472 29.7263 28.956 30.3826 28.0635 30.5838C27.171 30.7763 26.4447 31.2926 25.9285 32.1063C25.1497 33.3226 25.0272 34.8888 25.1935 35.6151C25.2897 36.0526 25.7272 36.7438 26.226 37.5488C27.031 38.8263 28.0285 40.4188 28.6672 42.4313C29.341 44.5488 30.986 45.7213 33.296 45.7213H38.7035C41.0135 45.7213 42.6497 44.5576 43.3322 42.4313C43.9185 40.6026 44.8985 39.0188 45.6947 37.7413C46.2197 36.8926 46.7272 36.0876 46.806 35.6413C47.0335 34.3901 46.5435 31.1526 43.936 30.5838C43.0435 30.3913 42.3522 29.7263 42.1422 28.8601C41.9497 28.0901 41.4947 27.0663 40.3835 26.5676C39.1847 26.0251 37.9597 26.3226 37.216 26.7776C36.481 27.2238 35.536 27.2238 34.801 26.7776C34.3372 26.4976 33.6985 26.2788 32.9897 26.2788H32.981Z" fill="#2D3E52"/>
</svg>
