<svg width="45" height="45" viewBox="0 0 45 45" fill="none" xmlns="http://www.w3.org/2000/svg">
<mask id="mask0_1429_2263" style="mask-type:alpha" maskUnits="userSpaceOnUse" x="0" y="0" width="45" height="45">
<circle cx="22.4999" cy="22.4999" r="22.4999" fill="#F7FAFA"/>
</mask>
<g mask="url(#mask0_1429_2263)">
<circle cx="22.5" cy="22.5" r="22.5" fill="#CEF0EC"/>
<path d="M19.9874 21.7685L21.6571 18.0628L34.3468 17.2393C34.6807 18.749 35.4154 21.7685 35.6825 21.7685C36.0165 21.7685 39.0219 32.4741 39.3559 33.7093C39.6898 34.9446 35.2507 46.9351 33.9149 47.3469C32.8463 47.6763 14.4281 45.5112 9.6416 45.3739L14.6443 34.5328L19.9874 21.7685Z" fill="white"/>
<path fill-rule="evenodd" clip-rule="evenodd" d="M27.0292 8.97544C22.7258 7.42947 19.0674 8.79609 16.4786 9.76321L16.4501 9.77383C13.4836 10.882 10.0969 10.9945 8.26098 10.8868C8.05849 10.875 7.87905 10.9723 7.78293 11.1214C7.68364 11.2755 7.67722 11.4818 7.81806 11.6521C8.22117 12.1398 8.80334 12.4724 9.47915 12.7093C10.1554 12.9463 10.9356 13.091 11.7457 13.196C12.3468 13.2739 12.9693 13.3305 13.581 13.3861C13.7934 13.4054 14.0045 13.4246 14.213 13.4446C15.0248 13.5221 15.7976 13.6109 16.4679 13.7606C17.5091 13.9931 18.3834 14.8823 19.0721 15.9808C19.7578 17.0747 20.2428 18.3498 20.5146 19.3058C20.607 19.631 20.9589 19.8055 21.269 19.6808C26.5982 17.5379 31.9794 19.1834 34.5726 20.5633C34.9378 20.7576 35.4089 20.4988 35.387 20.0573C35.1227 14.7317 32.0286 10.7715 27.0292 8.97544ZM20.6547 20.204C20.6271 19.9555 20.4268 19.7685 20.1841 19.7789C17.4069 19.897 11.2992 22.6699 6.39867 33.0722C1.81925 42.7928 5.48276 52.747 8.59679 57.7335C8.75043 57.9796 9.03082 57.9933 9.23858 57.905C9.44615 57.8167 9.64088 57.6035 9.62059 57.32C9.38172 53.984 9.68383 46.6392 14.946 38.51C20.2548 30.3087 20.9775 23.1137 20.6547 20.204ZM35.2929 20.6788C35.1389 20.5963 34.979 20.6208 34.8726 20.7334C34.7717 20.8401 34.7386 21.005 34.7799 21.1674C35.6667 24.657 36.5117 30.2911 36.3139 36.4734C36.1161 42.6563 34.8756 49.3771 31.6005 55.0487C31.4836 55.2512 31.5128 55.4787 31.6277 55.6327C31.744 55.7883 31.9484 55.8685 32.1628 55.7776C35.6013 54.3215 41.4453 49.9882 43.341 41.4596C44.5471 36.0331 43.1386 31.1616 41.1323 27.4904C40.1291 25.6546 38.9753 24.1168 37.9212 22.9565C36.8693 21.7987 35.9099 21.0097 35.2929 20.6788ZM12.9034 61.546C13.7599 60.0815 15.3445 58.3188 17.5386 58.4012C19.0359 58.4574 20.0971 58.853 20.8198 59.4778C21.5433 60.1034 21.9131 60.9463 22.0506 61.8683C22.1379 62.4532 21.6529 62.9168 21.0974 62.9168H13.7376C13.382 62.9168 13.0809 62.7365 12.9146 62.4737C12.7472 62.2091 12.7183 61.8627 12.9034 61.546ZM28.4131 58.4042C26.219 58.3218 24.6344 60.0844 23.778 61.549C23.5928 61.8656 23.6217 62.212 23.7891 62.4766C23.9554 62.7395 24.2565 62.9197 24.6122 62.9197H31.9719C32.5274 62.9197 33.0124 62.4562 32.9251 61.8712C32.7876 60.9492 32.4178 60.1063 31.6943 59.4807C30.9716 58.8559 29.9104 58.4604 28.4131 58.4042Z" fill="#222222"/>
<ellipse cx="23.1254" cy="13.0528" rx="1.15714" ry="1.15828" fill="white"/>
</g>
</svg>
