<svg width="45" height="45" viewBox="0 0 45 45" fill="none" xmlns="http://www.w3.org/2000/svg">
<mask id="mask0_1429_2292" style="mask-type:alpha" maskUnits="userSpaceOnUse" x="0" y="0" width="45" height="45">
<circle cx="22.5" cy="22.5" r="22.5" fill="#CAF2D3"/>
</mask>
<g mask="url(#mask0_1429_2292)">
<circle cx="22.5" cy="22.5" r="22.5" fill="#C4EECE"/>
<mask id="mask1_1429_2292" style="mask-type:alpha" maskUnits="userSpaceOnUse" x="0" y="0" width="45" height="45">
<circle cx="22.5" cy="22.5" r="22.5" fill="#CAF2D3"/>
</mask>
<g mask="url(#mask1_1429_2292)">
<path d="M28.4866 35.0067C28.4322 34.8982 28.3823 34.7858 28.3229 34.6801C27.2866 32.8851 26.2608 31.0853 25.202 29.3033C25.0901 29.1152 24.825 28.9663 24.576 28.917C23.8599 28.7772 23.1271 28.5394 22.3813 28.6409C21.6507 28.74 20.8964 29.2092 20.1527 29.5155C16.3334 31.0882 13.1017 30.527 11.1165 27.9361C10.8188 27.5469 10.5419 27.1392 10.2966 26.7172C10.0793 26.3437 10.228 25.9663 10.7029 25.6857C12.4265 24.666 14.2268 23.9401 16.1437 23.7353C18.4294 23.4911 20.0807 24.2741 21.4038 25.5602C21.6983 25.8462 21.9638 26.1595 22.1993 26.4899C22.7654 27.2865 22.7684 27.3004 24.0365 27.3276C23.9855 27.2106 23.9531 27.1114 23.9015 27.022C22.9859 25.4333 22.0772 23.8393 21.1405 22.2628C21.0404 22.0951 20.8056 21.9728 20.5872 21.9136C19.3603 21.584 18.1857 21.7503 16.7749 22.3951C13.2667 23.9981 10.179 23.2813 8.44124 20.7082C8.27738 20.4646 8.11737 20.2161 7.97963 19.9575C7.77729 19.5754 7.87429 19.2291 8.33234 18.9595C11.6351 17.0151 15.5141 16.0571 18.1936 19.1036C18.3882 19.3256 18.6035 19.5434 18.7315 19.8025C18.9531 20.2525 19.3954 20.3405 19.9946 20.3211C19.9233 20.1718 19.8738 20.0487 19.8082 19.935C19.1806 18.8422 18.5629 17.7437 17.9067 16.6674C17.7895 16.4759 17.5359 16.3411 17.2996 16.2508C16.4503 15.926 15.5159 15.7126 14.732 15.3087C13.2156 14.5295 12.5142 13.2227 12.5109 11.5362C12.508 10.4481 12.7659 9.35199 13.2158 8.25517C13.4338 7.72499 13.775 7.46841 14.2735 7.53308C16.3402 7.80021 18.1406 8.43358 19.1714 10.0063C20.0771 11.3882 19.9558 13.0313 19.4137 14.7412C19.2466 15.2705 19.2467 15.6786 19.5161 16.1023C20.1331 17.0703 20.6778 18.0827 21.2518 19.0769L21.4948 19.4978C21.7807 18.953 21.9475 18.5496 21.6995 18.1084C21.4498 17.6616 21.2877 17.154 21.1749 16.6425C20.586 13.9763 21.7775 11.6012 24.9895 9.3788C25.3559 9.12577 25.7394 8.88494 26.1334 8.67687C26.61 8.42502 26.9694 8.48444 27.1912 8.83976C27.9199 10.0129 28.3126 11.3165 28.1651 12.8049C27.9666 14.814 26.6498 16.4061 24.8381 17.8046C24.6831 17.9239 24.537 18.073 24.365 18.1516C22.9091 18.8159 23.0114 20.0475 22.4836 21.0467C22.4432 21.1232 22.5123 21.2401 22.5582 21.3225C23.5219 22.9974 24.4894 24.6702 25.4563 26.342C25.4748 26.3741 25.515 26.3949 25.5739 26.4452C25.9407 25.7475 26.1334 25.1619 25.8031 24.4922C24.9704 22.7999 24.7523 20.9368 25.755 18.8755C26.4951 17.3533 27.7569 16.1402 29.2321 15.0811C29.7236 14.7287 30.2453 14.4055 30.7704 14.0997C31.2587 13.8165 31.6648 13.8619 31.8852 14.2206C32.704 15.5555 33.1476 17.0306 32.9781 18.7222C32.7767 20.7407 31.5197 22.4046 29.7501 23.8876C29.4113 24.1713 29.0716 24.4879 28.6835 24.6861C27.8036 25.1358 27.457 25.7881 27.0827 26.5562C26.5312 27.6897 26.6024 28.5427 27.1995 29.4303C28.1367 30.8238 28.9049 32.3239 29.7449 33.7788L29.9665 34.1627C30.0086 34.1552 30.0502 34.1467 30.0923 34.1393C30.3112 33.5788 30.5481 33.0209 30.735 32.4569C30.7806 32.3204 30.6777 32.1595 30.6104 32.0286C29.8928 30.6276 29.4913 29.1191 29.6531 27.4228C29.8766 25.0806 31.3054 23.1309 33.3838 21.4359C34.2047 20.7663 35.1214 20.1878 36.0224 19.608C36.655 19.2013 37.0379 19.2783 37.3373 19.774C38.018 20.8984 38.4295 22.1368 38.5514 23.4943C38.7952 26.2121 37.4489 28.5832 34.9523 30.6686C34.2351 31.268 33.4148 31.7662 32.6592 32.3307C32.4497 32.488 32.2315 32.7047 32.1389 32.9149C31.766 33.76 31.4212 34.6108 31.1109 35.4638C31.0297 35.6882 31.0336 35.9736 31.133 36.1572C31.6443 37.106 32.1984 38.0313 32.7364 38.966C32.7852 39.0505 32.8396 39.1332 32.8809 39.222C33.0584 39.6042 32.92 39.9964 32.5257 40.2357C32.1127 40.4858 31.6619 40.426 31.4353 40.045C30.8476 39.0587 30.2686 38.0674 29.7158 37.061C29.5604 36.7775 29.3369 36.6461 28.9718 36.6055C28.1356 36.5104 27.307 36.394 26.4879 36.2565C26.1298 36.1964 25.8288 36.2613 25.4704 36.4592C23.7371 37.4132 21.931 38.0686 20.043 38.2891C17.4056 38.5964 15.46 37.7462 13.958 36.2421C13.3321 35.6147 12.8491 34.8673 12.3494 34.1425C12.062 33.7253 12.2346 33.3432 12.7928 33.0144C14.4789 32.0189 16.2467 31.2886 18.1138 30.9284C21.0709 30.3589 23.2741 31.1757 24.9789 32.8413C25.5035 33.3535 25.8934 33.9771 26.37 34.5325C26.4959 34.6788 26.6893 34.8069 26.8961 34.8547C27.3837 34.9696 27.8974 35.032 28.4005 35.1161L28.4885 35.0043L28.4866 35.0067Z" fill="#222222"/>
<path d="M30.6014 44.3455L17.5646 15.8345L18.8487 15.0931L37.0215 40.6389L30.6014 44.3455Z" fill="#222222"/>
</g>
</g>
</svg>
