<svg width="45" height="45" viewBox="0 0 45 45" fill="none" xmlns="http://www.w3.org/2000/svg">
<mask id="mask0_1429_2321" style="mask-type:alpha" maskUnits="userSpaceOnUse" x="0" y="0" width="45" height="45">
<circle cx="22.5" cy="22.5" r="22.5" fill="#FFE1B4"/>
</mask>
<g mask="url(#mask0_1429_2321)">
<circle cx="22.5" cy="22.5" r="22.5" fill="#FFE1B4"/>
<rect x="11.25" y="-3.21411" width="8.03571" height="51.4286" fill="#F8C77F"/>
<path d="M14.2996 29.6626L13.1272 23.4098L12.5898 18.5737C12.7364 16.8149 14.2605 12.8575 19.1846 11.0989C24.1087 9.34031 28.5638 10.9527 30.1758 11.9787C31.9344 11.539 34.2695 9.34106 34.6212 12.8583C35.0608 17.2547 36.1844 37.9671 32.6672 40.605C29.8534 42.7153 21.5294 49.3003 19.1846 48.421L17.0352 37.4786L14.2996 29.6626Z" fill="white"/>
<path d="M5.8676 16.8511C4.90104 16.2114 4.56156 15.4311 4.88158 14.1798C5.46325 11.8974 7.12606 10.6612 9.19107 9.85071C9.69922 9.65187 10.056 9.4768 10.296 8.86516C10.4928 8.36158 11.1545 7.83423 11.7015 7.70455C14.1514 7.12317 16.4327 7.66565 18.4133 9.2088C19.8989 10.3673 19.7972 11.3658 18.3593 12.5501C15.172 15.1804 13.2865 18.4785 13.3535 22.7233C13.3752 24.1389 12.8173 24.5366 11.4572 24.0611C10.9836 23.8969 10.5166 23.6937 10.0841 23.443C9.36406 23.0237 8.76942 22.5029 7.75962 22.773C6.95092 22.9913 6.02545 21.9798 5.89571 20.7565C5.76597 19.5246 5.8676 18.2667 5.8676 16.8468V16.8511Z" fill="#222222"/>
<path d="M-5.07548 61.0144C-4.89645 61.7769 -4.74945 62.55 -4.5277 63.3012C-3.75529 65.9319 -5.00988 67.4837 -7.7086 67.2035C-13.8323 66.5674 -18.2719 59.7205 -16.1308 54.162C-15.5598 52.6816 -14.7819 51.3325 -12.9563 51.1895C-13.1383 50.2097 -13.3983 49.25 -13.4803 48.2756C-13.57 47.1863 -13.2049 46.2099 -12.1834 45.6458C-11.226 45.1191 -10.3204 45.4334 -9.52706 46.0381C-3.93349 50.294 1.66339 54.5432 7.21982 58.8439C8.5262 59.8562 8.51161 61.277 7.37968 62.5785C5.64628 64.5765 2.39543 65.2931 -0.22706 64.0548C-1.4487 63.4759 -2.49703 62.5263 -3.6068 61.7224C-3.97617 61.4534 -4.29268 61.1124 -4.6315 60.8033C-4.77785 60.8731 -4.92748 60.9413 -5.07383 61.0111L-5.07548 61.0144Z" fill="#222222"/>
<path d="M44.5086 18.4857C44.2426 19.7739 44.4134 20.5792 43.9917 21.8154C43.5895 22.9933 42.757 23.3067 41.5051 23.2095C41.1504 23.1814 40.7764 23.3694 40.4131 23.4602C39.0033 23.8103 37.6064 24.2361 36.1771 24.4889C35.2646 24.6489 34.7738 24.1107 34.8322 23.1403C35.083 19.0231 33.6796 15.6061 30.4967 12.9434C29.9215 12.4636 29.8394 11.8973 30.127 11.2122C31.0351 9.04874 34.9165 6.8183 37.1891 7.29594C37.8745 7.44075 38.4821 7.98539 39.107 8.37658C39.626 8.70078 40.0758 9.17842 40.6315 9.40103C42.5516 10.1683 44.2447 11.1841 45.2221 13.0968C45.7237 14.0802 45.7259 14.9145 44.8653 15.8287C44.4566 16.2631 44.5712 17.1925 44.4501 17.897C44.3269 17.8733 44.5755 17.9208 44.4501 17.897L44.5086 18.4857Z" fill="#222222"/>
<path d="M19.2003 23.9634C19.2003 23.9634 19.228 22.8376 19.8147 22.1957C19.9607 22.101 19.8147 22.1957 20.108 21.8747C20.108 21.8747 20.459 21.5554 20.4968 21.5258C22.228 20.1966 23.64 20.6127 24.19 22.8412C24.5146 24.1606 24.4569 25.6121 24.4569 27.0025C24.4569 27.8327 23.9303 28.4717 23.1928 28.5861C22.356 28.7143 21.4706 28.7241 20.6393 28.5703C19.8098 28.4165 19.2706 27.7302 19.2129 26.7717C19.1588 25.8645 19.2003 24.9514 19.2003 23.9634Z" fill="#222222"/>
<circle cx="27.5863" cy="21.2596" r="1.36607" fill="#222222"/>
<circle cx="17.034" cy="21.2596" r="1.36607" fill="#222222"/>
<path d="M25.0015 32.685C32.1614 31.3494 34.335 28.0194 34.6396 25.9655C34.6929 25.606 35.0541 25.3296 35.385 25.4799C40.3065 27.7154 45.2387 35.3314 44.2529 38.8609C40.1502 40.8147 35.4967 44.2669 32.0321 44.4653C25.7084 44.8274 24.3209 39.7714 18.8343 39.6678C13.6248 39.5694 9.35131 35.7496 9.21951 34.3518C9.0877 32.954 9.01528 29.6772 11.9553 29.6626C14.8953 29.648 14.8091 34.5862 25.0015 32.685Z" fill="#222222"/>
</g>
</svg>
