<svg width="72" height="72" viewBox="0 0 72 72" fill="none" xmlns="http://www.w3.org/2000/svg">
<rect x="1" y="1" width="70" height="70" rx="30" fill="#FCFCFC" stroke="#F4F4F4"/>
<path d="M32.5699 26.8125L28.9212 35.1687C28.5887 35.93 29.1487 36.7787 29.9712 36.7787H34.8887L31.9662 44.1462C31.3799 45.6162 32.2112 46.9637 33.7949 46.9637C34.6349 46.9637 35.4049 46.4912 35.7899 45.7387L43.0787 33.4975C43.3499 33.0075 42.9999 32.4037 42.4399 32.4037H38.4674L41.5474 26.8037C41.9674 26.0425 41.4162 25.1062 40.5412 25.1062H35.1687C34.0399 25.1062 33.0249 25.7712 32.5699 26.8037V26.8125Z" fill="#95E6A8"/>
<path d="M33.7949 47.6375C32.8412 47.6375 32.0187 47.235 31.5462 46.5262C31.0474 45.7912 30.9774 44.8375 31.3449 43.9012L33.9087 37.4437H29.9799C29.3674 37.4437 28.7987 37.1375 28.4574 36.6212C28.1249 36.1049 28.0637 35.4662 28.3174 34.8975L31.9574 26.55C32.5174 25.2725 33.7774 24.45 35.1687 24.45H40.5412C41.1887 24.45 41.7749 24.7825 42.1074 25.3425C42.4399 25.9025 42.4487 26.5762 42.1337 27.145L39.6049 31.7562H42.4487C42.9562 31.7562 43.4024 32.0187 43.6562 32.4475C43.9099 32.8762 43.9187 33.4012 43.6649 33.8475L36.3762 46.0887C35.8774 47.0512 34.8887 47.655 33.7949 47.655V47.6375ZM33.1912 27.0837L29.5424 35.44C29.4462 35.65 29.5424 35.825 29.5774 35.8949C29.6212 35.9562 29.7437 36.1137 29.9799 36.1137H34.8974C35.1162 36.1137 35.3262 36.2275 35.4487 36.4112C35.5712 36.595 35.5974 36.8312 35.5187 37.0325L32.5962 44.4C32.3862 44.9162 32.4124 45.4237 32.6574 45.7825C32.8849 46.115 33.2962 46.3075 33.8037 46.3075C34.3987 46.3075 34.9324 45.9837 35.2037 45.45C35.2037 45.4412 35.2212 45.4237 35.2212 45.415L42.5099 33.1737C42.5099 33.1737 42.5274 33.1737 42.5099 33.1212C42.4924 33.0862 42.4662 33.0862 42.4574 33.0862H38.4849C38.2487 33.0862 38.0299 32.9637 37.9074 32.7537C37.7849 32.5525 37.7849 32.2987 37.8987 32.0887L40.9787 26.4887C41.1012 26.27 41.0137 26.0862 40.9787 26.0162C40.9437 25.9462 40.8124 25.78 40.5674 25.78H35.1949C34.3374 25.78 33.5587 26.2875 33.2087 27.075L33.1912 27.0837Z" fill="#59636F"/>
<path fill-rule="evenodd" clip-rule="evenodd" d="M47.375 28.5625C47.6166 28.5625 47.8125 28.3666 47.8125 28.125C47.8125 27.8834 47.6166 27.6875 47.375 27.6875C47.1334 27.6875 46.9375 27.8834 46.9375 28.125C46.9375 28.3666 47.1334 28.5625 47.375 28.5625ZM47.375 29.875C48.3415 29.875 49.125 29.0915 49.125 28.125C49.125 27.1585 48.3415 26.375 47.375 26.375C46.4085 26.375 45.625 27.1585 45.625 28.125C45.625 29.0915 46.4085 29.875 47.375 29.875Z" fill="#59636F"/>
<path fill-rule="evenodd" clip-rule="evenodd" d="M24.625 41.6875C25.3499 41.6875 25.9375 41.0999 25.9375 40.375C25.9375 39.6501 25.3499 39.0625 24.625 39.0625C23.9001 39.0625 23.3125 39.6501 23.3125 40.375C23.3125 41.0999 23.9001 41.6875 24.625 41.6875ZM24.625 43C26.0747 43 27.25 41.8247 27.25 40.375C27.25 38.9253 26.0747 37.75 24.625 37.75C23.1753 37.75 22 38.9253 22 40.375C22 41.8247 23.1753 43 24.625 43Z" fill="#59636F"/>
<path fill-rule="evenodd" clip-rule="evenodd" d="M47.3027 39.5C47.6652 39.5 47.959 39.7938 47.959 40.1562L47.959 41.7604C47.959 42.1229 47.6652 42.4167 47.3027 42.4167C46.9403 42.4167 46.6465 42.1229 46.6465 41.7604L46.6465 40.1562C46.6465 39.7938 46.9403 39.5 47.3027 39.5Z" fill="#59636F"/>
<path fill-rule="evenodd" clip-rule="evenodd" d="M47.3027 45.3333C47.6652 45.3333 47.959 45.6271 47.959 45.9895L47.959 47.5937C47.959 47.9561 47.6652 48.2499 47.3027 48.2499C46.9403 48.2499 46.6465 47.9561 46.6465 47.5937L46.6465 45.9895C46.6465 45.6271 46.9403 45.3333 47.3027 45.3333Z" fill="#59636F"/>
<path fill-rule="evenodd" clip-rule="evenodd" d="M43 43.9479C43 43.5854 43.2938 43.2916 43.6562 43.2916L45.2604 43.2916C45.6229 43.2916 45.9167 43.5854 45.9167 43.9479C45.9167 44.3103 45.6229 44.6041 45.2604 44.6041L43.6563 44.6041C43.2938 44.6041 43 44.3103 43 43.9479Z" fill="#59636F"/>
<path fill-rule="evenodd" clip-rule="evenodd" d="M48.833 43.9478C48.833 43.5853 49.1268 43.2915 49.4893 43.2915L51.0934 43.2915C51.4559 43.2915 51.7497 43.5853 51.7497 43.9478C51.7497 44.3102 51.4559 44.604 51.0934 44.604L49.4893 44.604C49.1268 44.604 48.833 44.3102 48.833 43.9478Z" fill="#59636F"/>
</svg>
