<svg width="72" height="72" viewBox="0 0 72 72" fill="none" xmlns="http://www.w3.org/2000/svg">
<rect x="1" y="1" width="70" height="70" rx="30" fill="#FCFCFC" stroke="#F4F4F4"/>
<circle cx="36" cy="36" r="11.5" fill="#C2F2F9" stroke="#59636F" stroke-width="1.5"/>
<path fill-rule="evenodd" clip-rule="evenodd" d="M32.9375 47.8641C38.221 46.5042 42.125 41.708 42.125 36C42.125 30.292 38.221 25.4958 32.9375 24.1359C33.9163 23.884 34.9425 23.75 36 23.75C42.7655 23.75 48.25 29.2345 48.25 36C48.25 42.7655 42.7655 48.25 36 48.25C34.9425 48.25 33.9163 48.116 32.9375 47.8641Z" fill="#6BD9E7"/>
<path d="M28.621 36.3885C28.621 36.1809 28.571 35.9859 28.4843 35.8121H35.562C36.2695 35.8121 36.8422 35.2365 36.8422 34.5278C36.8422 33.819 36.2685 33.2435 35.562 33.2435H32.9853C32.4501 33.2435 32.0169 32.809 32.0169 32.2721C32.0169 31.7352 32.451 31.3007 32.9853 31.3007H34.098C34.9364 31.3007 35.615 30.619 35.615 29.7789C35.615 28.9388 34.9354 28.2571 34.098 28.2571H28.0291C27.4794 28.2571 26.9991 28.5516 26.7325 28.9909H26.4043L24.3165 33.8045H24.4099C24.2693 34.0102 24.1875 34.2593 24.1875 34.5278C24.1875 34.8947 24.3415 35.224 24.587 35.4577C24.3415 35.6914 24.1875 36.0216 24.1875 36.3876C24.1875 37.0973 24.7612 37.6718 25.4677 37.6718H27.3399C28.0473 37.6718 28.6201 37.0963 28.6201 36.3876L28.621 36.3885Z" fill="#4FD66E"/>
<path d="M31.2578 39.4214H29.3847C28.6777 39.4214 28.1045 39.9964 28.1045 40.7057V40.7066C28.1045 41.4159 28.6777 41.9909 29.3847 41.9909H31.2578C31.9649 41.9909 32.538 41.4159 32.538 40.7066V40.7057C32.538 39.9964 31.9649 39.4214 31.2578 39.4214Z" fill="#4FD66E"/>
<path d="M45.5709 39.4214H36.2514C35.5439 39.4214 34.9712 39.9969 34.9712 40.7057C34.9712 41.4154 35.5449 41.9899 36.2514 41.9899H40.5251C40.5184 42.043 40.5136 42.0971 40.5136 42.1521C40.5136 42.8619 41.0873 43.4364 41.7938 43.4364H44.7854C45.4929 43.4364 46.0656 42.8609 46.0656 42.1521C46.0656 42.0652 46.0569 41.9812 46.0406 41.8992C46.5151 41.7109 46.8511 41.2474 46.8511 40.7057C46.8511 39.9959 46.2774 39.4214 45.5709 39.4214Z" fill="#4FD66E"/>
<path d="M40.4482 33.5274H45.6565C46.364 33.5274 46.9367 32.9519 46.9367 32.2431C46.9367 31.602 46.468 31.0718 45.8558 30.9753L44.5044 28.7302L44.0173 27.8552C43.949 27.6679 43.8797 28.3276 43.8797 28.0968H44.3966C44.3966 27.387 42.9941 26.8125 42.2876 26.8125H41.5233C40.8159 26.8125 40.2431 27.388 40.2431 28.0968C40.2431 28.8065 40.8168 29.381 41.5233 29.381H42.2895V29.383C42.7073 29.4013 43.0413 29.746 43.0413 30.169C43.0413 30.5919 42.7073 30.9376 42.2895 30.955V30.9569H40.4472C39.7397 30.9569 39.167 31.5324 39.167 32.2412C39.167 32.95 39.7407 33.5255 40.4472 33.5255L40.4482 33.5274Z" fill="#4FD66E"/>
<mask id="mask0_1207_736" style="mask-type:alpha" maskUnits="userSpaceOnUse" x="32" y="23" width="17" height="26">
<path fill-rule="evenodd" clip-rule="evenodd" d="M32.9375 47.8641C38.221 46.5042 42.125 41.708 42.125 36C42.125 30.292 38.221 25.4958 32.9375 24.1359C33.9163 23.884 34.9425 23.75 36 23.75C42.7655 23.75 48.25 29.2345 48.25 36C48.25 42.7655 42.7655 48.25 36 48.25C34.9425 48.25 33.9163 48.116 32.9375 47.8641Z" fill="#6BD9E7"/>
</mask>
<g mask="url(#mask0_1207_736)">
<path d="M28.621 36.3885C28.621 36.1809 28.571 35.9859 28.4843 35.8121H35.562C36.2695 35.8121 36.8422 35.2365 36.8422 34.5278C36.8422 33.819 36.2685 33.2435 35.562 33.2435H32.9853C32.4501 33.2435 32.0169 32.809 32.0169 32.2721C32.0169 31.7352 32.451 31.3007 32.9853 31.3007H34.098C34.9364 31.3007 35.615 30.619 35.615 29.7789C35.615 28.9388 34.9354 28.2571 34.098 28.2571H28.0291C27.4794 28.2571 26.9991 28.5516 26.7325 28.9909H26.4043L24.3165 33.8045H24.4099C24.2693 34.0102 24.1875 34.2593 24.1875 34.5278C24.1875 34.8947 24.3415 35.224 24.587 35.4577C24.3415 35.6914 24.1875 36.0216 24.1875 36.3876C24.1875 37.0973 24.7612 37.6718 25.4677 37.6718H27.3399C28.0473 37.6718 28.6201 37.0963 28.6201 36.3876L28.621 36.3885Z" fill="#4FD66E"/>
<path d="M45.5709 39.4214H36.2514C35.5439 39.4214 34.9712 39.9969 34.9712 40.7057C34.9712 41.4154 35.5449 41.9899 36.2514 41.9899H40.5251C40.5184 42.043 40.5136 42.0971 40.5136 42.1521C40.5136 42.8619 41.0873 43.4364 41.7938 43.4364H44.7854C45.4929 43.4364 46.0656 42.8609 46.0656 42.1521C46.0656 42.0652 46.0569 41.9812 46.0406 41.8992C46.5151 41.7109 46.8511 41.2474 46.8511 40.7057C46.8511 39.9959 46.2774 39.4214 45.5709 39.4214Z" fill="#45C262"/>
<path d="M40.4482 33.5274H45.6565C46.364 33.5274 46.9367 32.9519 46.9367 32.2431C46.9367 31.602 46.468 31.0718 45.8558 30.9753L44.5044 28.7302L44.0173 27.8552C43.949 27.6679 43.8797 28.3276 43.8797 28.0968H44.3966C44.3966 27.387 42.9941 26.8125 42.2876 26.8125H41.5233C40.8159 26.8125 40.2431 27.388 40.2431 28.0968C40.2431 28.8065 40.8168 29.381 41.5233 29.381H42.2895V29.383C42.7073 29.4013 43.0413 29.746 43.0413 30.169C43.0413 30.5919 42.7073 30.9376 42.2895 30.955V30.9569H40.4472C39.7397 30.9569 39.167 31.5324 39.167 32.2412C39.167 32.95 39.7407 33.5255 40.4472 33.5255L40.4482 33.5274Z" fill="#45C262"/>
</g>
<path fill-rule="evenodd" clip-rule="evenodd" d="M36 46.9375C42.0406 46.9375 46.9375 42.0406 46.9375 36C46.9375 29.9594 42.0406 25.0625 36 25.0625C29.9594 25.0625 25.0625 29.9594 25.0625 36C25.0625 42.0406 29.9594 46.9375 36 46.9375ZM36 48.25C42.7655 48.25 48.25 42.7655 48.25 36C48.25 29.2345 42.7655 23.75 36 23.75C29.2345 23.75 23.75 29.2345 23.75 36C23.75 42.7655 29.2345 48.25 36 48.25Z" fill="#59636F"/>
</svg>
