<svg width="639" height="61" viewBox="0 0 639 61" fill="none" xmlns="http://www.w3.org/2000/svg">
<path d="M33.0233 41.616V33.408H27.2633V28.368H33.0233V23.952H27.2633V18.912H33.0233V7.92H39.3593V41.616H33.0233ZM26.7833 12.576V17.52H2.54331V12.576H11.8073V7.776H18.1433V12.576H26.7833ZM10.5593 27.744C10.5593 30.24 12.3833 31.584 14.9753 31.584C17.5193 31.584 19.3433 30.24 19.3433 27.744C19.3433 25.344 17.5193 23.952 14.9753 23.952C12.3833 23.952 10.5593 25.344 10.5593 27.744ZM25.2953 27.744C25.2953 32.88 20.9753 36.48 14.9753 36.48C8.92731 36.48 4.60731 32.88 4.60731 27.744C4.60731 22.656 8.92731 19.104 14.9753 19.104C20.9753 19.104 25.2953 22.656 25.2953 27.744ZM16.5113 46.32H40.3193V51.36H10.1753V38.88H16.5113V46.32ZM53.5636 18.144V36.96C57.6916 36.864 61.4356 36.624 65.6596 35.856L66.1396 40.992C60.7636 42 56.0596 42.192 50.3956 42.192H47.3236V13.008H63.6916V18.144H53.5636ZM77.9956 7.872H83.9956V52.128H77.9956V30H74.0116V50.064H68.1076V8.736H74.0116V24.912H77.9956V7.872ZM92.2958 12.144H112.6C112.6 25.776 109.384 37.152 92.9198 45.552L89.5598 40.656C96.8078 37.056 101.08 32.928 103.576 28.08L90.7598 29.328L89.9438 23.952L105.4 23.04C105.832 21.216 106.168 19.296 106.312 17.184H92.2958V12.144ZM130.552 24.768V30H124.36V52.032H118.024V7.872H124.36V24.768H130.552ZM169.188 28.32V33.36H138.084V11.568H168.852V16.704H144.42V28.32H169.188ZM133.428 41.664H173.46V46.848H133.428V41.664ZM198.324 22.608C196.212 24.56 195.156 27.344 195.156 30.96C195.156 34.576 196.212 37.376 198.324 39.36C200.436 41.312 202.916 42.288 205.764 42.288C208.644 42.288 211.14 41.312 213.252 39.36C215.364 37.376 216.42 34.576 216.42 30.96C216.42 27.344 215.364 24.56 213.252 22.608C211.14 20.624 208.644 19.632 205.764 19.632C202.916 19.632 200.436 20.624 198.324 22.608ZM188.292 31.008C188.292 25.696 190.004 21.408 193.428 18.144C196.852 14.88 200.964 13.248 205.764 13.248C210.596 13.248 214.724 14.88 218.148 18.144C221.572 21.408 223.284 25.696 223.284 31.008C223.284 36.288 221.572 40.56 218.148 43.824C214.724 47.088 210.596 48.72 205.764 48.72C200.964 48.72 196.852 47.088 193.428 43.824C190.004 40.56 188.292 36.288 188.292 31.008ZM243.522 48C243.394 47.36 243.33 46.512 243.33 45.456C242.722 46.512 241.81 47.312 240.594 47.856C239.41 48.368 238.146 48.624 236.802 48.624C234.018 48.624 231.826 47.744 230.226 45.984C228.626 44.192 227.826 41.968 227.826 39.312V24.384H234.21V38.016C234.21 39.424 234.578 40.576 235.314 41.472C236.05 42.336 237.122 42.768 238.53 42.768C239.906 42.768 240.994 42.352 241.794 41.52C242.594 40.656 242.994 39.52 242.994 38.112V24.384H249.378V43.728C249.378 45.232 249.458 46.656 249.618 48H243.522ZM270.111 24.288V30.72C269.471 30.592 268.831 30.528 268.191 30.528C266.367 30.528 264.895 31.056 263.775 32.112C262.655 33.136 262.095 34.832 262.095 37.2V48H255.711V24.384H261.903V27.888C263.055 25.424 265.295 24.192 268.623 24.192C268.975 24.192 269.471 24.224 270.111 24.288ZM285.841 13.968H298.081C301.313 13.968 303.841 14.816 305.665 16.512C307.521 18.208 308.449 20.416 308.449 23.136C308.449 24.864 307.985 26.4 307.057 27.744C306.129 29.056 304.945 29.952 303.505 30.432C305.233 30.848 306.657 31.792 307.777 33.264C308.929 34.704 309.505 36.448 309.505 38.496C309.505 41.28 308.545 43.568 306.625 45.36C304.705 47.12 302.161 48 298.993 48H285.841V13.968ZM292.369 28.032H297.073C298.577 28.032 299.761 27.648 300.625 26.88C301.489 26.112 301.921 25.072 301.921 23.76C301.921 22.448 301.489 21.424 300.625 20.688C299.793 19.92 298.593 19.536 297.025 19.536H292.369V28.032ZM292.369 42.48H297.745C299.345 42.48 300.593 42.096 301.489 41.328C302.417 40.528 302.881 39.44 302.881 38.064C302.881 36.688 302.433 35.584 301.537 34.752C300.673 33.92 299.441 33.504 297.841 33.504H292.369V42.48ZM312.691 41.568C312.691 39.552 313.347 37.936 314.659 36.72C315.971 35.504 317.667 34.736 319.747 34.416L325.555 33.552C326.739 33.392 327.331 32.832 327.331 31.872C327.331 30.976 326.979 30.24 326.275 29.664C325.603 29.088 324.627 28.8 323.347 28.8C322.003 28.8 320.931 29.168 320.131 29.904C319.363 30.64 318.931 31.552 318.835 32.64L313.171 31.44C313.395 29.392 314.403 27.584 316.195 26.016C317.987 24.448 320.355 23.664 323.299 23.664C326.819 23.664 329.411 24.512 331.075 26.208C332.739 27.872 333.571 30.016 333.571 32.64V44.256C333.571 45.664 333.667 46.912 333.859 48H328.003C327.843 47.296 327.763 46.352 327.763 45.168C326.259 47.504 323.939 48.672 320.803 48.672C318.371 48.672 316.403 47.968 314.899 46.56C313.427 45.152 312.691 43.488 312.691 41.568ZM322.147 43.92C323.651 43.92 324.883 43.504 325.843 42.672C326.835 41.808 327.331 40.4 327.331 38.448V37.392L322.003 38.208C320.051 38.496 319.075 39.488 319.075 41.184C319.075 41.952 319.347 42.608 319.891 43.152C320.435 43.664 321.187 43.92 322.147 43.92ZM337.752 49.296L343.512 47.76C343.736 49.072 344.344 50.144 345.336 50.976C346.328 51.808 347.56 52.224 349.032 52.224C353.224 52.224 355.32 50.032 355.32 45.648V43.92C354.776 44.784 353.944 45.504 352.824 46.08C351.704 46.656 350.344 46.944 348.744 46.944C345.608 46.944 342.984 45.856 340.872 43.68C338.792 41.504 337.752 38.768 337.752 35.472C337.752 32.272 338.792 29.552 340.872 27.312C342.952 25.072 345.576 23.952 348.744 23.952C350.472 23.952 351.912 24.272 353.064 24.912C354.216 25.52 355.016 26.272 355.464 27.168V24.384H361.608V45.456C361.608 49.008 360.584 51.952 358.536 54.288C356.488 56.656 353.384 57.84 349.224 57.84C346.12 57.84 343.512 57.008 341.4 55.344C339.32 53.68 338.104 51.664 337.752 49.296ZM349.848 41.472C351.48 41.472 352.808 40.928 353.832 39.84C354.888 38.752 355.416 37.296 355.416 35.472C355.416 33.68 354.872 32.24 353.784 31.152C352.728 30.064 351.416 29.52 349.848 29.52C348.216 29.52 346.856 30.064 345.768 31.152C344.712 32.24 344.184 33.68 344.184 35.472C344.184 37.296 344.712 38.752 345.768 39.84C346.824 40.928 348.184 41.472 349.848 41.472Z" fill="#222222"/>
<path d="M465.5 8.79747H457.176V17.1244H465.5V8.79747Z" fill="#4FD66E"/>
<path d="M465.5 20.2093H457.176V51.8605H465.5V20.2093Z" fill="#4FD66E"/>
<path d="M472.642 17.1184C472.642 18.4962 472.618 19.1282 472.034 19.6434C471.498 20.1167 470.71 20.2095 469.44 20.2095V25.0978C469.731 25.0978 470.013 25.0978 470.282 25.1008H470.414C470.558 25.1008 470.588 25.1068 470.609 25.1098C470.633 25.1098 470.642 25.1128 470.791 25.1098C473.05 25.011 474.503 24.8792 475.892 23.5043C476.878 22.5309 477.761 21.2609 477.761 16.4834V8.79747H469.438V17.1244L472.636 17.1034V17.1184H472.642Z" fill="#4FD66E"/>
<path d="M516.07 29.375C516.945 30.4713 517.391 32.1157 517.391 34.2573V51.8636H525.799V31.2441C525.799 27.449 524.894 24.5346 523.109 22.5847C521.327 20.6348 518.82 19.6463 515.66 19.6463C513.716 19.6463 512.227 20.0147 510.517 20.9193C508.843 21.8029 507.701 23.1508 506.488 24.6904L506.398 24.8042L506.336 24.6724C505.557 23.0639 504.437 21.8089 503.008 20.9463C501.576 20.0836 499.854 19.6433 497.883 19.6433C496.808 19.6433 496.167 19.7841 495.295 20.0597C494.33 20.3652 493.555 20.6707 492.923 21.1799C492.15 21.7999 491.725 22.2462 491.212 22.8483C490.556 23.6181 490.212 24.0554 489.733 24.7203L489.568 24.951V20.2394H481.16V51.8607H489.568V34.2543C489.568 32.1097 490.041 30.4683 490.976 29.372C491.823 28.3746 492.749 27.7126 494.507 27.7126C496.265 27.7126 497.158 28.3776 497.958 29.375C498.832 30.4713 499.279 32.1157 499.279 34.2573V51.8636H507.686V34.2573C507.686 32.1127 508.16 30.4713 509.094 29.375C509.942 28.3776 510.867 27.7156 512.629 27.7156C514.39 27.7156 515.279 28.3806 516.079 29.378" fill="#4FD66E"/>
<path d="M562.207 24.7502C560.964 23.2016 559.382 21.9496 557.504 21.0301C555.629 20.1135 553.374 19.6462 550.807 19.6462C548.545 19.6462 546.458 20.0746 544.601 20.9162C542.744 21.7579 541.12 22.9231 539.778 24.3788C538.436 25.8345 537.379 27.5628 536.63 29.5157C535.881 31.4686 535.504 33.5683 535.504 35.7519V35.8687C535.504 38.244 535.911 40.4306 536.717 42.3625C537.523 44.2945 538.658 45.9958 540.096 47.4126C541.53 48.8293 543.262 49.9346 545.233 50.7014C547.206 51.4682 549.375 51.8576 551.678 51.8576C554.476 51.8576 556.944 51.3424 559.017 50.33C561.174 49.2727 562.686 48.0985 564.585 46.3912L559.865 41.7814C558.124 42.8957 556.926 43.7044 555.779 44.1986C554.611 44.7048 553.272 44.9594 551.792 44.9594C549.806 44.9594 548.117 44.4353 546.769 43.4019C545.421 42.3685 544.523 40.8169 544.094 38.7921L544.07 38.6843H565.765C565.801 38.2859 565.825 37.9055 565.843 37.5521C565.861 37.1687 565.873 36.8003 565.873 36.4528C565.873 34.2633 565.571 32.1336 564.978 30.1238C564.384 28.1139 563.453 26.3078 562.207 24.7562V24.7502ZM543.96 33.3437L543.978 33.2389C544.328 31.217 545.089 29.5816 546.236 28.3745C547.392 27.1614 548.929 26.5474 550.804 26.5474C552.679 26.5474 554.206 27.1734 555.345 28.4045C556.474 29.6325 557.187 31.259 557.459 33.2419L557.474 33.3437H543.963H543.96Z" fill="#4FD66E"/>
<path d="M589.799 43.5159C588.697 44.121 587.394 44.4265 585.926 44.4265C584.728 44.4265 583.629 44.1989 582.661 43.7496C581.697 43.3033 580.852 42.6802 580.154 41.8985C579.459 41.1197 578.92 40.1942 578.552 39.1398C578.186 38.0945 578.001 36.9503 578.001 35.7432V35.6263C578.001 34.4582 578.186 33.3439 578.552 32.3165C578.917 31.2862 579.447 30.3666 580.124 29.5878C580.801 28.8091 581.607 28.186 582.515 27.7397C583.425 27.2904 584.456 27.0628 585.579 27.0628C587.16 27.0628 588.505 27.3803 589.572 28.0033C590.605 28.6084 591.626 29.4321 592.606 30.4445L597.842 24.7714C596.407 23.1899 594.729 21.9289 592.854 21.0213C590.955 20.1047 588.526 19.6375 585.636 19.6375C583.278 19.6375 581.092 20.0658 579.133 20.9075C577.174 21.7492 575.47 22.9143 574.065 24.37C572.66 25.8258 571.54 27.554 570.743 29.507C569.946 31.4599 569.539 33.5566 569.539 35.7402V35.857C569.539 38.0405 569.943 40.1283 570.743 42.0602C571.543 43.9952 572.66 45.7055 574.065 47.1402C575.473 48.578 577.18 49.7312 579.136 50.5728C581.095 51.4145 583.243 51.8428 585.525 51.8428C588.565 51.8428 591.072 51.3097 592.971 50.2583C594.849 49.216 596.548 47.8681 598.018 46.2476L593.013 41.1467C591.962 42.1231 590.881 42.9199 589.805 43.5099L589.799 43.5159Z" fill="#4FD66E"/>
<path d="M627.451 24.2919C626.034 22.8572 624.327 21.713 622.374 20.8863C620.421 20.0626 618.276 19.6462 615.994 19.6462C613.712 19.6462 611.51 20.0746 609.56 20.9162C607.61 21.7579 605.891 22.9231 604.456 24.3788C603.018 25.8375 601.88 27.5568 601.075 29.4858C600.266 31.4177 599.855 33.5234 599.855 35.7489V35.8657C599.855 38.0912 600.266 40.1969 601.075 42.1289C601.88 44.0609 603.01 45.7682 604.429 47.2089C605.849 48.6466 607.556 49.7908 609.506 50.6145C611.456 51.4383 613.604 51.8546 615.886 51.8546C618.169 51.8546 620.37 51.4263 622.32 50.5846C624.27 49.7429 625.989 48.5777 627.424 47.122C628.859 45.6693 629.997 43.95 630.809 42.0151C631.618 40.0801 632.028 37.9744 632.028 35.7519V35.6351C632.028 33.4156 631.618 31.3099 630.809 29.3719C629.997 27.437 628.868 25.7297 627.454 24.2919H627.451ZM623.839 35.8657C623.839 37.0309 623.659 38.1422 623.303 39.1725C622.946 40.2059 622.425 41.1225 621.751 41.9012C621.074 42.683 620.247 43.306 619.295 43.7523C618.339 44.2016 617.228 44.4293 615.994 44.4293C614.76 44.4293 613.703 44.1926 612.747 43.7224C611.792 43.2551 610.947 42.6141 610.237 41.8144C609.524 41.0146 608.976 40.0891 608.602 39.0587C608.227 38.0313 608.039 36.9171 608.039 35.7489V35.6321C608.039 34.4639 608.218 33.3527 608.575 32.3223C608.928 31.2919 609.452 30.3754 610.126 29.5936C610.8 28.8148 611.627 28.1918 612.582 27.7425C613.538 27.2932 614.649 27.0656 615.883 27.0656C617.045 27.0656 618.127 27.3022 619.1 27.7695C620.071 28.2367 620.924 28.8777 621.64 29.6775C622.353 30.4772 622.901 31.4058 623.276 32.4331C623.65 33.4665 623.839 34.5808 623.839 35.7429V35.8597V35.8657Z" fill="#4FD66E"/>
<path d="M388.255 35.2269H392.252L396.079 46.4494L399.309 35.2269H403.24L398.042 51.4466H394.175L390.146 39.7887L386.215 51.4466H382.251L377 35.2269H381.133L384.428 46.4494L388.255 35.2269Z" fill="#222222"/>
<path d="M406.309 31.2954C405.821 30.808 405.574 30.2167 405.574 29.5278C405.574 28.839 405.821 28.2477 406.309 27.7473C406.796 27.2469 407.387 27 408.076 27C408.765 27 409.389 27.2469 409.876 27.7343C410.363 28.2217 410.61 28.8195 410.61 29.5343C410.61 30.2492 410.363 30.8145 409.876 31.3019C409.389 31.7893 408.791 32.0362 408.076 32.0362C407.361 32.0362 406.796 31.7893 406.309 31.3019V31.2954ZM410.006 51.4466H406.179V35.2269H410.006V51.4466Z" fill="#222222"/>
<path d="M419.901 30.2622V35.2269H423.267V38.658H419.901V46.183C419.901 46.8913 420.07 47.4112 420.402 47.7296C420.733 48.0545 421.259 48.2105 421.968 48.2105C422.41 48.2105 422.858 48.165 423.3 48.074V51.2712C422.722 51.5181 421.935 51.6351 420.935 51.6351C419.427 51.6351 418.238 51.2062 417.374 50.3549C416.509 49.5036 416.074 48.3209 416.074 46.8068V38.645H413.078V35.2139H413.91C414.729 35.2139 415.353 34.9799 415.775 34.5121C416.197 34.0442 416.405 33.4333 416.405 32.6795V30.2492H419.901V30.2622Z" fill="#222222"/>
<path d="M430.624 41.9201V51.4466H426.758V27.3314H430.624V36.7929C431.671 35.4413 433.211 34.759 435.251 34.759C437.162 34.759 438.624 35.3568 439.65 36.559C440.671 37.7612 441.184 39.3013 441.184 41.1858V51.4466H437.318V41.8551C437.318 40.7699 437.051 39.8926 436.518 39.2428C435.985 38.5865 435.141 38.2616 433.984 38.2616C432.964 38.2616 432.158 38.606 431.567 39.2948C430.975 39.9836 430.663 40.8609 430.618 41.9266L430.624 41.9201Z" fill="#222222"/>
</svg>
